<svg xmlns="http://www.w3.org/2000/svg" width="18" height="18" viewBox="0 0 24 28">
  <g fill="none">
    <path fill="#74BB11" d="M22.5853631,0.725 C22.3713631,0.271 21.9153631,0 21.3623631,0 L19.2283631,0 C18.6083631,0 18.1463631,0.25 17.9023631,0.7 L14.7393631,5.33 L17.5083631,9.123 L22.3413631,2.177 C22.8723631,1.53 22.6883631,0.947 22.5853631,0.725"/>
    <path fill="#009CD9" d="M5.91336306,0.648 L5.91036306,0.644 C5.42836306,0.001 4.78736306,0.001 4.57636306,0.001 L2.48936306,0.001 C1.95436306,0.001 1.51736306,0.246 1.28736306,0.675 C1.05236306,1.113 1.10236306,1.641 1.42736306,2.13 L9.15936306,12.868 L0.269363063,25.291 C-0.0416369367,25.758 -0.0856369367,26.278 0.149363063,26.716 C0.379363063,27.145 0.817363063,27.39 1.35136306,27.39 L3.48536306,27.39 C4.03336306,27.39 4.51536306,27.105 4.75636306,26.655 L14.7073631,12.917 L5.91336306,0.648 Z"/>
    <path fill="#EB2084" d="M23.6693631,25.663 L18.2833631,18.263 L15.9133631,21.533 L20.1733631,27.223 L20.2833631,27.273 C20.4673631,27.352 20.6433631,27.39 20.8213631,27.39 L22.6323631,27.39 C23.0703631,27.39 23.4423631,27.195 23.6523631,26.856 C23.8683631,26.506 23.8733631,26.073 23.6693631,25.663"/>
  </g>
</svg>
