<?xml version="1.0" encoding="UTF-8"?>
<svg width="416px" height="503px" viewBox="0 0 416 503" version="1.1" xmlns="http://www.w3.org/2000/svg" xmlns:xlink="http://www.w3.org/1999/xlink">
    <title>Footer/Default</title>
    <defs>
        <rect id="path-1" x="0" y="0" width="416" height="503"></rect>
    </defs>
    <g id="Legacy" stroke="none" stroke-width="1" fill="none" fill-rule="evenodd">
        <g id="11″-iPad-Pro-Landscape" transform="translate(-778.000000, -2992.000000)">
            <g id="Group-4" transform="translate(778.000000, 2992.000000)">
                <mask id="mask-2" fill="white">
                    <use xlink:href="#path-1"></use>
                </mask>
                <use id="Rectangle" fill-opacity="0" fill="#D8D8D8" xlink:href="#path-1"></use>
                <g id="Group-2-Copy-2" mask="url(#mask-2)">
                    <g transform="translate(0.000000, -22.000000)" id="Path">
                        <path d="M368.903498,274.503776 L372.330343,276.942925 L378.001598,281.054736 L383.7435,285.279238 L389.555954,289.616423 L395.438865,294.066283 L401.392139,298.628812 L410.453771,305.683841 L416.582536,310.528007 L422.781331,315.484815 L429.050062,320.554258 L435.388634,325.736328 L441.796952,331.031017 L448.27492,336.438318 L458.122262,344.760402 L461.439432,347.590728 L468.125785,353.335821 L474.881409,359.193497 L481.706211,365.163747 L488.600095,371.246564 L491.110817,373.480554 C444.225057,462.12265 374.300042,535.295799 281.33577,593 L275.737188,589.488531 C203.945615,543.989503 146.172906,489.077971 102.419063,424.753935 C214.432886,395.583865 302.45039,346.592602 366.071114,277.606088 L368.903498,274.503776 Z" fill="#2D4354"></path>
                        <path d="M254.800135,0.238515476 C216.055714,124.480773 210.919957,234.427673 239.874706,329.820888 C194.505899,355.974967 141.684646,376.427566 81.3393899,391.147735 C27.1103542,297.252964 0,185.151873 0,54.8484304 C65.1168779,21.4690915 148.786439,3.30119415 251.008683,0.340451865 L254.800135,0.238515476 Z" fill="#395062"></path>
                        <path d="M562.67154,54.8484304 C562.67154,161.49108 544.512819,255.941656 508.195376,338.200159 L502.640419,333.322634 L495.591785,327.186525 L488.611832,321.165542 L481.700466,315.259678 L474.857592,309.468925 L468.083116,303.793276 L461.376941,298.232723 L451.445538,290.107683 L441.667283,282.241567 L435.233369,277.141325 L428.867283,272.156141 L422.56893,267.286009 L416.338216,262.530922 L410.175045,257.89087 L402.565921,252.252565 L402.565921,252.252565 L395.061999,246.793978 L389.134484,242.556496 L383.274086,238.434016 L377.480709,234.426533 L371.75426,230.534037 L368.916103,228.630907 L363.289866,224.91088 L360.501763,223.09398 L353.604368,218.677472 L353.604368,218.677472 L346.810917,214.440584 L344.122599,212.796118 L338.795721,209.593394 L336.157136,208.035133 L330.929617,205.00481 L328.340658,203.532746 L323.212285,200.674807 L320.672846,199.28893 L315.643405,196.603358 C313.422735,195.435305 311.221572,194.301297 309.039879,193.201331 L305.781937,191.576913 L300.94972,189.236026 L296.183056,187.010018 C283.362358,181.13696 271.26182,176.527731 259.871693,173.182921 C262.77495,119.53915 274.293127,61.8238288 294.494588,0 C404.556439,1.33464547 493.946751,19.6196526 562.67154,54.8484304 Z" fill="#1C2C39"></path>
                    </g>
                </g>
            </g>
        </g>
    </g>
</svg>