<?xml version="1.0" encoding="utf-8"?>
<!-- Generator: Adobe Illustrator 27.8.0, SVG Export Plug-In . SVG Version: 6.00 Build 0)  -->
<svg version="1.1" id="Layer_1" xmlns="http://www.w3.org/2000/svg" xmlns:xlink="http://www.w3.org/1999/xlink" x="0px" y="0px"
	 viewBox="0 0 1109 110" style="enable-background:new 0 0 1109 110;" xml:space="preserve">

<polygon fill="#D9455F" points="68.7,96.2 55,110 0,55 17.6,37.4 31.4,51.1 27.5,55 "/>
<rect x="42.9" y="5" transform="matrix(0.7071 -0.7071 0.7071 0.7071 5.4059 42.4806)" fill="#D9455F" width="22.2" height="19.4"/>
<g>
	<polygon fill="#FFFFFF" points="70.7,55 53,72.6 39.3,58.9 43.2,55 1.9,13.8 15.7,0 	"/>
		<rect x="5.5" y="85.6" transform="matrix(0.7071 -0.7071 0.7071 0.7071 -62.5601 39.6184)" fill="#FFFFFF" width="22.1" height="19.4"/>
</g>
<path fill="#FFFFFF" d="M139.2,80.1l-11.8-24.8c-0.1-0.2-0.2-0.2-0.3-0.2h-13.6c-0.2,0-0.3,0.1-0.3,0.3v24.5c0,0.5-0.3,0.8-0.8,0.8
	h-4.1c-0.5,0-0.8-0.3-0.8-0.8V25.4c0-0.5,0.3-0.8,0.8-0.8H129c4.6,0,8.3,1.4,11.1,4.3s4.2,6.6,4.2,11.2c0,3.7-1,6.9-3,9.5
	s-4.8,4.3-8.2,5c-0.2,0.1-0.3,0.2-0.2,0.4l12,24.6c0.1,0.1,0.1,0.2,0.1,0.4c0,0.4-0.2,0.6-0.6,0.6h-4.2
	C139.7,80.6,139.4,80.5,139.2,80.1z M113.2,29.9v20.2c0,0.2,0.1,0.3,0.3,0.3h14.9c3.1,0,5.6-1,7.5-2.9s2.9-4.4,2.9-7.5
	s-1-5.6-2.9-7.6c-1.9-1.9-4.4-2.9-7.5-2.9h-14.9C113.3,29.6,113.2,29.7,113.2,29.9z"/>
<path fill="#FFFFFF" d="M160.6,78.3c-2.8-2-4.7-4.7-5.8-8.2c-0.7-2.5-1.1-5.7-1.1-9.8s0.4-7.4,1.1-9.8c1-3.4,2.9-6.1,5.7-8.1
	s6.1-3,10.1-3c3.8,0,7.1,1,9.8,3s4.6,4.6,5.6,8c0.7,2.3,1.1,5.6,1.1,9.8c0,4.3-0.4,7.6-1.1,9.8c-1,3.5-2.9,6.2-5.6,8.2
	c-2.7,2-6,3-9.9,3C166.7,81.3,163.4,80.3,160.6,78.3z M177.1,74.2c1.8-1.4,3-3.3,3.7-5.7c0.5-1.9,0.7-4.6,0.7-8.1s-0.2-6.2-0.6-8.1
	c-0.6-2.4-1.9-4.3-3.7-5.7s-4.1-2.1-6.7-2.1c-2.6,0-4.8,0.7-6.6,2.1c-1.8,1.4-3,3.3-3.7,5.7c-0.4,1.9-0.6,4.6-0.6,8.1
	s0.2,6.2,0.6,8.1c0.6,2.4,1.8,4.3,3.6,5.7c1.8,1.4,4.1,2.1,6.8,2.1C173.1,76.3,175.3,75.6,177.1,74.2z"/>
<path fill="#FFFFFF" d="M194.7,95.8v-3.2c0-0.5,0.3-0.8,0.8-0.8h0.3c2.1-0.1,3.7-0.4,4.8-0.9c1.1-0.6,2.1-1.6,3-3.1
	c0.8-1.5,1.7-3.8,2.7-6.9c0.1-0.2,0.1-0.4,0-0.5L192.8,41l-0.1-0.3c0-0.4,0.2-0.6,0.7-0.6h4.2c0.5,0,0.8,0.2,1,0.6L209,73.1
	c0.1,0.1,0.1,0.2,0.2,0.2c0.1,0,0.2-0.1,0.2-0.2l10.2-32.3c0.2-0.4,0.5-0.6,1-0.6h4.2c0.6,0,0.8,0.3,0.6,0.9l-14.8,43.1
	c-1.3,3.6-2.5,6.2-3.6,7.9s-2.5,2.9-4.2,3.6s-4,1-7.1,1h-0.6C194.9,96.6,194.7,96.4,194.7,95.8z"/>
<path fill="#FFFFFF" d="M258.2,43.2c2.6,2.5,3.9,5.7,3.9,9.8v26.9c0,0.5-0.3,0.8-0.8,0.8h-4.1c-0.5,0-0.8-0.3-0.8-0.8v-3.3
	c0-0.1,0-0.2-0.1-0.2c-0.1-0.1-0.2,0-0.3,0.1c-1.3,1.6-3.1,2.8-5.2,3.6c-2.1,0.8-4.5,1.2-7.1,1.2c-3.8,0-7-1-9.5-2.9
	s-3.8-4.9-3.8-8.8c0-4,1.5-7.2,4.4-9.5s6.9-3.5,12.1-3.5h9.3c0.2,0,0.3-0.1,0.3-0.3v-3c0-2.7-0.8-4.9-2.3-6.4
	c-1.5-1.6-3.9-2.4-7.1-2.4c-2.6,0-4.6,0.5-6.2,1.5c-1.6,1-2.6,2.4-3,4.1c-0.2,0.5-0.5,0.8-1,0.7l-4.3-0.6c-0.6-0.1-0.8-0.3-0.7-0.6
	c0.4-3,2-5.4,4.8-7.3c2.8-1.9,6.2-2.8,10.4-2.8C251.9,39.5,255.6,40.7,258.2,43.2z M253,74c2.3-1.6,3.4-3.7,3.4-6.4v-6.2
	c0-0.2-0.1-0.3-0.3-0.3h-8.4c-3.5,0-6.3,0.7-8.5,2.2c-2.1,1.4-3.2,3.4-3.2,6c0,2.3,0.8,4.1,2.4,5.3c1.6,1.2,3.7,1.8,6.4,1.8
	C248,76.4,250.7,75.6,253,74z"/>
<path fill="#FFFFFF" d="M274,79.8V25.4c0-0.5,0.3-0.8,0.8-0.8h4.1c0.5,0,0.8,0.3,0.8,0.8v54.4c0,0.5-0.3,0.8-0.8,0.8h-4.1
	C274.3,80.6,274,80.4,274,79.8z"/>
<path fill="#FFFFFF" d="M343.7,24.6h4.1c0.5,0,0.8,0.3,0.8,0.8v54.4c0,0.5-0.3,0.8-0.8,0.8h-4c-0.4,0-0.7-0.2-1-0.6l-27.3-44.4
	c-0.1-0.2-0.1-0.2-0.2-0.2s-0.2,0.1-0.2,0.3l0.1,44.1c0,0.5-0.3,0.8-0.8,0.8h-4.1c-0.5,0-0.8-0.3-0.8-0.8V25.4
	c0-0.5,0.3-0.8,0.8-0.8h4c0.4,0,0.7,0.2,1,0.6l27.3,44.4c0.1,0.2,0.1,0.2,0.2,0.2s0.2-0.1,0.2-0.3l-0.1-44.1
	C342.9,24.9,343.1,24.6,343.7,24.6z"/>
<path fill="#FFFFFF" d="M387.6,43.2c2.6,2.5,3.9,5.7,3.9,9.8v26.9c0,0.5-0.3,0.8-0.8,0.8h-4.1c-0.5,0-0.8-0.3-0.8-0.8v-3.3
	c0-0.1,0-0.2-0.1-0.2c-0.1-0.1-0.2,0-0.3,0.1c-1.3,1.6-3.1,2.8-5.2,3.6c-2.1,0.8-4.5,1.2-7.1,1.2c-3.8,0-7-1-9.5-2.9
	c-2.6-1.9-3.8-4.9-3.8-8.8c0-4,1.5-7.2,4.4-9.5s6.9-3.5,12.1-3.5h9.3c0.2,0,0.3-0.1,0.3-0.3v-3c0-2.7-0.8-4.9-2.3-6.4
	c-1.5-1.6-3.9-2.4-7.1-2.4c-2.6,0-4.6,0.5-6.2,1.5s-2.6,2.4-3,4.1c-0.2,0.5-0.5,0.8-1,0.7l-4.3-0.6c-0.6-0.1-0.8-0.3-0.7-0.6
	c0.4-3,2-5.4,4.8-7.3c2.8-1.9,6.2-2.8,10.4-2.8C381.3,39.5,385,40.7,387.6,43.2z M382.4,74c2.3-1.6,3.4-3.7,3.4-6.4v-6.2
	c0-0.2-0.1-0.3-0.3-0.3h-8.4c-3.5,0-6.3,0.7-8.5,2.2c-2.1,1.4-3.2,3.4-3.2,6c0,2.3,0.8,4.1,2.4,5.3c1.6,1.2,3.7,1.8,6.4,1.8
	C377.4,76.4,380.1,75.6,382.4,74z"/>
<path fill="#FFFFFF" d="M412.2,80l-13.1-39l-0.1-0.3c0-0.4,0.2-0.6,0.7-0.6h4.6c0.5,0,0.8,0.2,1,0.6l10,31.4c0.1,0.1,0.1,0.2,0.2,0.2
	s0.2-0.1,0.2-0.2l10-31.4c0.2-0.4,0.5-0.6,1-0.6l4.6,0.1c0.6,0,0.8,0.3,0.6,0.9L418.8,80c-0.2,0.4-0.5,0.6-1,0.6h-4.6
	C412.7,80.6,412.4,80.4,412.2,80z"/>
<path fill="#FFFFFF" d="M438.5,95.8v-3.2c0-0.5,0.3-0.8,0.8-0.8h0.3c2.1-0.1,3.7-0.4,4.8-0.9c1.1-0.6,2.1-1.6,3-3.1
	c0.8-1.5,1.7-3.8,2.7-6.9c0.1-0.2,0.1-0.4,0-0.5L436.6,41l-0.1-0.3c0-0.4,0.2-0.6,0.7-0.6h4.2c0.5,0,0.8,0.2,1,0.6L452.8,73
	c0.1,0.1,0.1,0.2,0.2,0.2s0.2-0.1,0.2-0.2l10.2-32.3c0.2-0.4,0.5-0.6,1-0.6h4.2c0.6,0,0.8,0.3,0.6,0.9l-14.8,43.1
	c-1.3,3.6-2.5,6.2-3.6,7.9c-1.1,1.7-2.5,2.9-4.2,3.6s-4,1-7.1,1H439C438.7,96.6,438.5,96.4,438.5,95.8z"/>
<path fill="#FFFFFF" d="M494.9,79.8V25.4c0-0.5,0.3-0.8,0.8-0.8h18.9c5.3,0,9.5,1.4,12.6,4.2s4.7,6.5,4.7,11.3v25.1
	c0,4.7-1.6,8.5-4.7,11.3c-3.1,2.8-7.3,4.2-12.6,4.2h-18.9C495.1,80.6,494.9,80.4,494.9,79.8z M500.9,75.7h13.9c3.5,0,6.2-1,8.3-3
	s3.1-4.7,3.1-8.2V40.9c0-3.5-1-6.2-3-8.2s-4.8-3-8.3-3H501c-0.2,0-0.3,0.1-0.3,0.3v45.4C500.6,75.6,500.7,75.7,500.9,75.7z"/>
<path fill="#FFFFFF" d="M574.6,59.2v2.6c0,0.5-0.3,0.8-0.8,0.8H548c-0.2,0-0.3,0.1-0.3,0.3c0.1,2.9,0.3,4.8,0.5,5.7
	c0.6,2.4,1.8,4.3,3.8,5.7c1.9,1.4,4.4,2.1,7.4,2.1c2.2,0,4.2-0.5,5.9-1.5s3-2.5,4-4.3c0.3-0.5,0.7-0.6,1.1-0.3l3.1,1.8
	c0.4,0.3,0.5,0.6,0.3,1.1c-1.3,2.6-3.3,4.6-6,6c-2.7,1.5-5.7,2.2-9.2,2.2c-3.8-0.1-7-1-9.5-2.7c-2.6-1.8-4.4-4.2-5.5-7.4
	c-1-2.6-1.4-6.2-1.4-11c0-2.2,0-4.1,0.1-5.5s0.3-2.7,0.6-3.8c0.9-3.5,2.7-6.2,5.5-8.3c2.7-2.1,6.1-3.1,10-3.1
	c4.9,0,8.6,1.2,11.2,3.7c2.6,2.5,4.2,5.9,4.9,10.4C574.5,55.1,574.6,57,574.6,59.2z M551.6,46.5c-1.7,1.4-2.9,3.2-3.4,5.5
	c-0.3,1.1-0.5,2.9-0.6,5.4c0,0.2,0.1,0.3,0.3,0.3h20.7c0.2,0,0.3-0.1,0.3-0.3c-0.1-2.4-0.3-4.1-0.5-5.1c-0.6-2.4-1.8-4.3-3.6-5.7
	s-4-2.1-6.8-2.1C555.5,44.5,553.4,45.2,551.6,46.5z"/>
<path fill="#FFFFFF" d="M590.4,79.6c-2.3-1-4.1-2.2-5.4-3.8c-1.3-1.6-1.9-3.4-1.9-5.4v-1c0-0.5,0.3-0.8,0.8-0.8h3.8
	c0.5,0,0.8,0.3,0.8,0.8V70c0,1.8,0.9,3.3,2.8,4.6c1.8,1.3,4.1,2,6.9,2c2.8,0,5-0.6,6.7-1.9s2.6-2.8,2.6-4.8c0-1.3-0.4-2.4-1.3-3.3
	c-0.9-0.9-1.9-1.5-3.1-2c-1.2-0.5-3.1-1.1-5.6-1.8c-3-0.9-5.4-1.7-7.4-2.6c-1.9-0.9-3.5-2-4.8-3.6c-1.3-1.5-2-3.5-2-5.8
	c0-3.4,1.3-6.1,4-8.2c2.7-2,6.2-3,10.6-3c2.9,0,5.5,0.5,7.8,1.4c2.3,1,4,2.3,5.2,4s1.8,3.6,1.8,5.6V51c0,0.5-0.3,0.8-0.8,0.8h-3.8
	c-0.5,0-0.8-0.3-0.8-0.8v-0.2c0-1.8-0.9-3.3-2.6-4.6c-1.7-1.2-4.1-1.8-7-1.8c-2.7,0-4.9,0.5-6.6,1.6c-1.7,1.1-2.5,2.6-2.5,4.5
	c0,1.8,0.8,3.2,2.4,4.2c1.6,1,4.1,1.9,7.4,2.9c3.1,0.9,5.6,1.8,7.5,2.6s3.6,2,5,3.5c1.4,1.5,2.1,3.5,2.1,6c0,3.5-1.4,6.2-4.1,8.3
	c-2.7,2.1-6.3,3.1-10.8,3.1C595.4,81,592.8,80.6,590.4,79.6z"/>
<path fill="#FFFFFF" d="M624.2,31.5c-0.9-0.9-1.3-1.9-1.3-3.2c0-1.3,0.4-2.4,1.3-3.2c0.9-0.8,1.9-1.2,3.2-1.2s2.3,0.4,3.2,1.2
	c0.9,0.8,1.3,1.9,1.3,3.2c0,1.3-0.4,2.3-1.3,3.2c-0.9,0.9-1.9,1.3-3.2,1.3C626.2,32.8,625.1,32.4,624.2,31.5z M624.4,79.8V40.9
	c0-0.5,0.3-0.8,0.8-0.8h4.1c0.5,0,0.8,0.3,0.8,0.8v38.9c0,0.5-0.3,0.8-0.8,0.8h-4.1C624.7,80.6,624.4,80.3,624.4,79.8z"/>
<path fill="#FFFFFF" d="M669.8,40.2h4.1c0.5,0,0.8,0.3,0.8,0.8v38.3c0,6-1.7,10.3-5.2,13.1c-3.4,2.8-8.2,4.2-14.2,4.2
	c-1.2,0-2.2,0-2.8-0.1c-0.5-0.1-0.8-0.3-0.8-0.9l0.2-3.7c0-0.3,0.1-0.5,0.2-0.6c0.2-0.1,0.3-0.2,0.6-0.1l2.2,0.1c5,0,8.6-1,10.8-2.9
	s3.4-5,3.4-9.2v-3c0-0.1,0-0.2-0.1-0.2s-0.2,0-0.3,0.1c-2.5,3.2-5.9,4.8-10.5,4.8c-3.5,0-6.5-0.9-9.2-2.8s-4.5-4.5-5.4-7.9
	c-0.6-2.2-1-5.4-1-9.8c0-2.3,0.1-4.3,0.2-5.9c0.1-1.6,0.4-3,0.8-4.3c1-3.2,2.7-5.8,5.2-7.7s5.5-2.9,9-2.9c4.7,0,8.3,1.6,10.8,4.7
	c0.1,0.1,0.2,0.1,0.3,0.1c0.1-0.1,0.1-0.1,0.1-0.2V41C669,40.4,669.2,40.2,669.8,40.2z M668.9,65.4c0.1-1.2,0.1-2.9,0.1-5.1
	c0-2.7,0-4.5-0.1-5.5c-0.1-0.9-0.2-1.8-0.4-2.6c-0.4-2.2-1.5-4.1-3.2-5.6s-3.8-2.2-6.4-2.2c-2.5,0-4.6,0.7-6.4,2.2
	c-1.7,1.4-2.9,3.3-3.6,5.6c-0.5,1.7-0.8,4.4-0.8,8c0,3.9,0.3,6.6,0.8,8.1c0.5,2.2,1.7,4.1,3.5,5.6s4,2.2,6.5,2.2
	c2.6,0,4.8-0.7,6.4-2.2c1.7-1.4,2.7-3.3,3.2-5.5C668.7,67.6,668.8,66.6,668.9,65.4z"/>
<path fill="#FFFFFF" d="M713.8,43.4c2.5,2.5,3.8,5.9,3.8,10.1v26.4c0,0.5-0.3,0.8-0.8,0.8h-4.1c-0.5,0-0.8-0.3-0.8-0.8V54.6
	c0-2.9-0.9-5.3-2.7-7.2s-4.1-2.8-6.9-2.8c-2.9,0-5.3,0.9-7.1,2.7s-2.7,4.2-2.7,7.1v25.4c0,0.5-0.3,0.8-0.8,0.8h-4.1
	c-0.5,0-0.8-0.3-0.8-0.8V41c0-0.5,0.3-0.8,0.8-0.8h4.1c0.5,0,0.8,0.3,0.8,0.8v3.4c0,0.1,0,0.2,0.1,0.2c0.1,0.1,0.1,0,0.2-0.1
	c2.3-3.3,5.9-5,10.8-5C707.9,39.6,711.3,40.9,713.8,43.4z"/>
<path fill="#FFFFFF" d="M748.9,77.2c-3.5-2.7-5.2-6.3-5.2-10.9v-2.5c0-0.5,0.3-0.8,0.8-0.8h3.9c0.5,0,0.8,0.3,0.8,0.8V66
	c0,3.1,1.3,5.6,3.8,7.5c2.6,1.9,6.1,2.8,10.6,2.8c4.1,0,7.2-0.9,9.4-2.6c2.1-1.7,3.2-4,3.2-6.9c0-1.9-0.5-3.5-1.5-4.8
	s-2.5-2.6-4.6-3.8s-4.9-2.5-8.7-4.1c-4-1.6-7.1-3-9.3-4.2s-4-2.7-5.4-4.6c-1.4-1.9-2-4.3-2-7.2c0-4.5,1.6-8,4.7-10.4
	s7.4-3.7,12.8-3.7c5.9,0,10.6,1.4,14,4.2s5.1,6.5,5.1,11V41c0,0.5-0.3,0.8-0.8,0.8h-4c-0.5,0-0.8-0.3-0.8-0.8v-1.4
	c0-3.1-1.2-5.6-3.6-7.6c-2.4-2-5.8-3-10.1-3c-3.8,0-6.7,0.8-8.7,2.3c-2,1.5-3,3.8-3,6.7c0,1.9,0.5,3.5,1.5,4.8s2.4,2.3,4.2,3.3
	c1.8,0.9,4.7,2.1,8.5,3.6c3.9,1.6,7,3.1,9.4,4.5s4.3,3.1,5.8,5.1s2.2,4.4,2.2,7.3c0,4.5-1.7,8.1-5,10.7c-3.3,2.7-7.9,4-13.8,4
	C757.2,81.3,752.4,79.9,748.9,77.2z"/>
<path fill="#FFFFFF" d="M790.2,95.8v-3.2c0-0.5,0.3-0.8,0.8-0.8h0.3c2.1-0.1,3.7-0.4,4.8-0.9c1.1-0.6,2.1-1.6,3-3.1
	c0.8-1.5,1.7-3.8,2.7-6.9c0.1-0.2,0.1-0.4,0-0.5L788.3,41l-0.1-0.3c0-0.4,0.2-0.6,0.7-0.6h4.2c0.5,0,0.8,0.2,1,0.6L804.5,73
	c0.1,0.1,0.1,0.2,0.2,0.2c0.1,0,0.2-0.1,0.2-0.2l10.2-32.3c0.2-0.4,0.5-0.6,1-0.6h4.2c0.6,0,0.8,0.3,0.6,0.9l-14.8,43.1
	c-1.3,3.6-2.5,6.2-3.6,7.9c-1.1,1.7-2.5,2.9-4.2,3.6s-4,1-7.1,1h-0.6C790.4,96.6,790.2,96.4,790.2,95.8z"/>
<path fill="#FFFFFF" d="M832.4,79.6c-2.3-1-4.1-2.2-5.4-3.8c-1.3-1.6-1.9-3.4-1.9-5.4v-1c0-0.5,0.3-0.8,0.8-0.8h3.8
	c0.5,0,0.8,0.3,0.8,0.8V70c0,1.8,0.9,3.3,2.8,4.6c1.8,1.3,4.1,2,6.9,2c2.8,0,5-0.6,6.7-1.9s2.6-2.8,2.6-4.8c0-1.3-0.4-2.4-1.3-3.3
	c-0.9-0.9-1.9-1.5-3.1-2c-1.2-0.5-3.1-1.1-5.6-1.8c-3-0.9-5.4-1.7-7.4-2.6c-1.9-0.9-3.5-2-4.8-3.6c-1.3-1.5-2-3.5-2-5.8
	c0-3.4,1.3-6.1,4-8.2c2.7-2,6.2-3,10.6-3c2.9,0,5.5,0.5,7.8,1.4c2.3,1,4,2.3,5.2,4s1.8,3.6,1.8,5.6V51c0,0.5-0.3,0.8-0.8,0.8h-3.8
	c-0.5,0-0.8-0.3-0.8-0.8v-0.2c0-1.8-0.9-3.3-2.6-4.6c-1.7-1.2-4.1-1.8-7-1.8c-2.7,0-4.9,0.5-6.6,1.6c-1.7,1.1-2.5,2.6-2.5,4.5
	c0,1.8,0.8,3.2,2.4,4.2c1.6,1,4.1,1.9,7.4,2.9c3.1,0.9,5.6,1.8,7.5,2.6s3.6,2,5,3.5c1.4,1.5,2.1,3.5,2.1,6c0,3.5-1.4,6.2-4.1,8.3
	c-2.7,2.1-6.3,3.1-10.8,3.1C837.3,81,834.7,80.6,832.4,79.6z"/>
<path fill="#FFFFFF" d="M882.8,44.9h-9c-0.2,0-0.3,0.1-0.3,0.3v23.6c0,2.6,0.6,4.4,1.7,5.4c1.1,1,2.9,1.6,5.4,1.6h2
	c0.5,0,0.8,0.3,0.8,0.8v3.3c0,0.5-0.3,0.8-0.8,0.8c-0.6,0.1-1.6,0.1-3,0.1c-3.8,0-6.7-0.7-8.7-2.2c-2-1.4-3-4.1-3-8V45.2
	c0-0.2-0.1-0.3-0.3-0.3h-4.9c-0.5,0-0.8-0.3-0.8-0.8V41c0-0.5,0.3-0.8,0.8-0.8h4.9c0.2,0,0.3-0.1,0.3-0.3v-9.3
	c0-0.5,0.3-0.8,0.8-0.8h3.9c0.5,0,0.8,0.3,0.8,0.8v9.3c0,0.2,0.1,0.3,0.3,0.3h9c0.5,0,0.8,0.3,0.8,0.8v3.1
	C883.6,44.6,883.3,44.9,882.8,44.9z"/>
<path fill="#FFFFFF" d="M924.7,59.2v2.6c0,0.5-0.3,0.8-0.8,0.8h-25.8c-0.2,0-0.3,0.1-0.3,0.3c0.1,2.9,0.3,4.8,0.5,5.7
	c0.6,2.4,1.8,4.3,3.8,5.7c1.9,1.4,4.4,2.1,7.4,2.1c2.2,0,4.2-0.5,5.9-1.5s3-2.5,4-4.3c0.3-0.5,0.7-0.6,1.1-0.3l3.1,1.8
	c0.4,0.3,0.5,0.6,0.3,1.1c-1.3,2.6-3.3,4.6-6,6c-2.7,1.5-5.7,2.2-9.2,2.2c-3.8-0.1-7-1-9.5-2.7c-2.6-1.8-4.4-4.2-5.5-7.4
	c-1-2.6-1.4-6.2-1.4-11c0-2.2,0-4.1,0.1-5.5s0.3-2.7,0.6-3.8c0.9-3.5,2.7-6.2,5.5-8.3c2.7-2.1,6.1-3.1,10-3.1
	c4.9,0,8.6,1.2,11.2,3.7c2.6,2.5,4.2,5.9,4.9,10.4C924.6,55.1,924.7,57,924.7,59.2z M901.8,46.5c-1.7,1.4-2.9,3.2-3.4,5.5
	c-0.3,1.1-0.5,2.9-0.6,5.4c0,0.2,0.1,0.3,0.3,0.3h20.7c0.2,0,0.3-0.1,0.3-0.3c-0.1-2.4-0.3-4.1-0.5-5.1c-0.6-2.4-1.8-4.3-3.6-5.7
	s-4-2.1-6.8-2.1C905.7,44.5,903.5,45.2,901.8,46.5z"/>
<path fill="#FFFFFF" d="M986.4,43.2c2.3,2.4,3.5,5.7,3.5,9.8v26.8c0,0.5-0.3,0.8-0.8,0.8h-4c-0.5,0-0.8-0.3-0.8-0.8V54.2
	c0-2.9-0.8-5.3-2.5-7s-3.9-2.6-6.6-2.6c-2.8,0-5.1,0.9-6.8,2.6c-1.7,1.7-2.6,4-2.6,6.9v25.8c0,0.5-0.3,0.8-0.8,0.8h-4.1
	c-0.5,0-0.8-0.3-0.8-0.8V54.2c0-2.9-0.8-5.3-2.5-7s-3.9-2.6-6.6-2.6c-2.8,0-5.1,0.9-6.8,2.6c-1.7,1.7-2.5,4-2.5,6.9v25.8
	c0,0.5-0.3,0.8-0.8,0.8h-4.1c-0.5,0-0.8-0.3-0.8-0.8V41c0-0.5,0.3-0.8,0.8-0.8h4.1c0.5,0,0.8,0.3,0.8,0.8v3.2c0,0.1,0,0.2,0.1,0.2
	s0.2,0,0.3-0.1c1.2-1.5,2.7-2.7,4.5-3.5s3.9-1.2,6.1-1.2c2.8,0,5.1,0.6,7.1,1.7c2,1.1,3.5,2.7,4.5,4.9c0.1,0.3,0.2,0.3,0.4,0
	c1.2-2.2,2.8-3.8,5-4.9c2.1-1.1,4.6-1.6,7.3-1.6C981,39.6,984.1,40.8,986.4,43.2z"/>
</svg>
