<?xml version="1.0" encoding="utf-8"?>
<!-- Generator: Adobe Illustrator 27.8.0, SVG Export Plug-In . SVG Version: 6.00 Build 0)  -->
<svg version="1.1" id="Layer_1" xmlns="http://www.w3.org/2000/svg" xmlns:xlink="http://www.w3.org/1999/xlink" x="0px" y="0px"
	 viewBox="0 0 416 503" style="enable-background:new 0 0 416 503;" xml:space="preserve">
<style type="text/css">
	.footer-clip-st0{fill-rule:evenodd;clip-rule:evenodd;fill:#1F3341;}
	.footer-clip-st1{fill:#395062;}
	.footer-clip-st2{fill:#1C2C39;}
</style>
<polygon class="footer-clip-st0" points="416,0 416,3 413,0 "/>
<polygon class="footer-clip-st1" points="416,453 416,503 316,503 72,259 168.2,162.8 243.2,237.8 222,259 "/>
<polygon class="footer-clip-st1" points="416,3 416,64.9 361.3,119.7 286.3,44.7 331,0 413,0 "/>
<polygon class="footer-clip-st2" points="416,217.5 416,300.6 361.4,355.2 286.4,280.2 307.6,259 82.6,34.1 116.7,0 198.5,0 "/>
<polygon class="footer-clip-st2" points="242.5,473.8 213.4,503 101.4,503 82.4,484 167.5,398.9 "/>
</svg>
