<?xml version="1.0" encoding="UTF-8"?>
<svg width="1109px" height="110px" viewBox="0 0 1109 110" version="1.1" xmlns="http://www.w3.org/2000/svg" xmlns:xlink="http://www.w3.org/1999/xlink">
    <title>MODUKDesignSystem.Logo.Light.Colour</title>
    <g id="Logos" stroke="none" stroke-width="1" fill="none" fill-rule="evenodd">
        <g id="Artboard" transform="translate(-100.000000, -634.000000)">
            <g id="MODUKDesignSystem.Logo.Light.Colour" transform="translate(100.000000, 634.000000)">
                <path d="M159.92462,90.1415445 L159.92462,47.0883991 C159.92462,46.2586811 159.89389,45.3521374 159.83243,44.3687679 C159.770969,43.3853984 159.694143,42.3866638 159.601952,41.372564 L159.601952,41.372564 L179.976139,79.3552104 C180.928778,81.1682979 182.388467,82.0748416 184.355206,82.0748416 L184.355206,82.0748416 L186.106833,82.0748416 C188.073572,82.0748416 189.533261,81.1682979 190.4859,79.3552104 L190.4859,79.3552104 L210.62961,41.5108503 C210.445228,43.5083196 210.353037,45.3675025 210.353037,47.0883991 L210.353037,47.0883991 L210.353037,90.1415445 L221.277657,90.1415445 L221.277657,23.4875315 L211.920282,23.4875315 C211.367137,23.4875315 210.890817,23.5028966 210.491323,23.5336269 C210.091829,23.5643572 209.730748,23.6411829 209.40808,23.7641041 C209.085412,23.8870253 208.785792,24.0867722 208.509219,24.3633449 C208.232646,24.6399176 207.971439,25.0086811 207.725597,25.4696356 L207.725597,25.4696356 L188.042842,62.3920868 C187.520427,63.3754563 187.028742,64.3972386 186.567787,65.4574338 C186.106833,66.5176291 185.661244,67.6162372 185.23102,68.7532581 C184.800795,67.6469675 184.362889,66.5714071 183.917299,65.526577 C183.47171,64.4817469 182.987708,63.4676471 182.465293,62.4842777 L182.465293,62.4842777 L162.505965,25.4696356 C162.260123,25.0086811 162.006598,24.6399176 161.74539,24.3633449 C161.484183,24.0867722 161.192245,23.8870253 160.869577,23.7641041 C160.546909,23.6411829 160.185828,23.5643572 159.786334,23.5336269 C159.38684,23.5028966 158.910521,23.4875315 158.357375,23.4875315 L158.357375,23.4875315 L149,23.4875315 L149,90.1415445 L159.92462,90.1415445 Z M262.486985,90.8790716 C267.557484,90.8790716 272.167028,90.0263059 276.315618,88.3207744 C280.464208,86.615243 284.013557,84.2413275 286.963666,81.1990282 C289.913774,78.1567289 292.195499,74.5536016 293.808839,70.3896464 C295.42218,66.2256913 296.22885,61.7006551 296.22885,56.814538 C296.22885,53.5571265 295.867769,50.4533666 295.145607,47.5032581 C294.423445,44.5531497 293.370933,41.8181533 291.988069,39.298269 C290.605206,36.7783847 288.922722,34.4966602 286.940618,32.4530954 C284.958514,30.4095307 282.722885,28.673269 280.233731,27.2443102 C277.744577,25.8153514 275.009581,24.7090607 272.028742,23.9254382 C269.047903,23.1418156 265.867317,22.7500043 262.486985,22.7500043 C257.447216,22.7500043 252.853037,23.6027701 248.704447,25.3083015 C244.555857,27.013833 240.998825,29.3877484 238.033351,32.4300477 C235.067878,35.4723471 232.770788,39.0754743 231.142082,43.2394295 C229.513377,47.4033847 228.699024,51.9284208 228.699024,56.814538 C228.699024,61.7006551 229.513377,66.2256913 231.142082,70.3896464 C232.770788,74.5536016 235.067878,78.1567289 238.033351,81.1990282 C240.998825,84.2413275 244.555857,86.615243 248.704447,88.3207744 C252.853037,90.0263059 257.447216,90.8790716 262.486985,90.8790716 Z M262.486985,80.2771193 C259.229573,80.2771193 256.302513,79.7393391 253.705803,78.6637787 C251.109093,77.5882184 248.896511,76.044021 247.068059,74.0311866 C245.239606,72.0183521 243.833695,69.5599284 242.850325,66.6559154 C241.866956,63.7519024 241.375271,60.4714432 241.375271,56.814538 C241.375271,53.1576327 241.866956,49.8771735 242.850325,46.9731605 C243.833695,44.0691475 245.239606,41.6030412 247.068059,39.5748416 C248.896511,37.5466421 251.109093,35.9947621 253.705803,34.9192017 C256.302513,33.8436414 259.229573,33.3058612 262.486985,33.3058612 C265.744396,33.3058612 268.671457,33.8436414 271.268167,34.9192017 C273.864877,35.9947621 276.069776,37.5466421 277.882863,39.5748416 C279.695951,41.6030412 281.094179,44.0691475 282.077549,46.9731605 C283.060918,49.8771735 283.552603,53.1576327 283.552603,56.814538 C283.552603,60.4714432 283.060918,63.7519024 282.077549,66.6559154 C281.094179,69.5599284 279.695951,72.0183521 277.882863,74.0311866 C276.069776,76.044021 273.864877,77.5882184 271.268167,78.6637787 C268.671457,79.7393391 265.744396,80.2771193 262.486985,80.2771193 Z M329.094902,90.1415445 C334.165401,90.1415445 338.774946,89.3271916 342.923536,87.6984859 C347.072126,86.0697802 350.621475,83.7803731 353.571584,80.8302646 C356.521692,77.8801562 358.811099,74.3615372 360.439805,70.2744078 C362.06851,66.1872784 362.882863,61.7006551 362.882863,56.814538 C362.882863,51.9284208 362.06851,47.4417975 360.439805,43.3546681 C358.811099,39.2675387 356.521692,35.7566023 353.571584,32.821859 C350.621475,29.8871157 347.072126,27.5977086 342.923536,25.9536377 C338.774946,24.3095669 334.165401,23.4875315 329.094902,23.4875315 L329.094902,23.4875315 L303.696312,23.4875315 L303.696312,90.1415445 L329.094902,90.1415445 Z M329.094902,80.2771193 L316.142082,80.2771193 L316.142082,33.3519566 L329.094902,33.3519566 C332.352314,33.3519566 335.279375,33.8897368 337.876085,34.9652972 C340.472795,36.0408576 342.685376,37.585055 344.513829,39.5978894 C346.342281,41.6107238 347.74051,44.0691475 348.708514,46.9731605 C349.676518,49.8771735 350.160521,53.1576327 350.160521,56.814538 C350.160521,60.4714432 349.676518,63.7519024 348.708514,66.6559154 C347.74051,69.5599284 346.342281,72.0183521 344.513829,74.0311866 C342.685376,76.044021 340.472795,77.5882184 337.876085,78.6637787 C335.279375,79.7393391 332.352314,80.2771193 329.094902,80.2771193 L329.094902,80.2771193 Z M372.101952,90.7868807 C373.085322,90.7868807 373.999548,90.6101815 374.844631,90.2567831 C375.689714,89.9033847 376.427242,89.4193825 377.057213,88.8047766 C377.687184,88.1901706 378.186551,87.4603261 378.555315,86.615243 C378.924078,85.7701598 379.10846,84.8559335 379.10846,83.872564 C379.10846,82.9199248 378.924078,82.0133811 378.555315,81.1529328 C378.186551,80.2924845 377.687184,79.5549573 377.057213,78.9403514 C376.427242,78.3257455 375.689714,77.8340607 374.844631,77.4652972 C373.999548,77.0965336 373.085322,76.9121518 372.101952,76.9121518 C371.118583,76.9121518 370.196674,77.0965336 369.336226,77.4652972 C368.475777,77.8340607 367.73825,78.3257455 367.123644,78.9403514 C366.509038,79.5549573 366.025036,80.2924845 365.671638,81.1529328 C365.318239,82.0133811 365.14154,82.9199248 365.14154,83.872564 C365.14154,84.8559335 365.318239,85.7701598 365.671638,86.615243 C366.025036,87.4603261 366.509038,88.1901706 367.123644,88.8047766 C367.73825,89.4193825 368.475777,89.9033847 369.336226,90.2567831 C370.196674,90.6101815 371.118583,90.7868807 372.101952,90.7868807 Z M412.251085,90.8790716 C416.522596,90.8790716 420.363883,90.1953225 423.774946,88.8278243 C427.186009,87.4603261 430.082339,85.5550477 432.463937,83.1119892 C434.845535,80.6689306 436.673988,77.7649176 437.949295,74.3999501 C439.224602,71.0349826 439.862256,67.3703948 439.862256,63.4061866 L439.862256,63.4061866 L439.862256,23.4875315 L427.462581,23.4875315 L427.462581,63.4061866 C427.462581,65.9568012 427.116866,68.2615734 426.425434,70.3205033 C425.734002,72.3794331 424.74295,74.13106 423.452278,75.5753839 C422.161605,77.0197079 420.571312,78.1413637 418.681399,78.9403514 C416.791486,79.7393391 414.648048,80.138833 412.251085,80.138833 C409.854121,80.138833 407.710683,79.7393391 405.82077,78.9403514 C403.930857,78.1413637 402.332881,77.0120253 401.026844,75.5523362 C399.720806,74.0926471 398.722072,72.3333377 398.03064,70.2744078 C397.339208,68.2154779 396.993492,65.9107057 396.993492,63.3600911 L396.993492,63.3600911 L396.993492,23.4875315 L384.593818,23.4875315 L384.593818,63.4061866 C384.593818,67.3703948 385.231471,71.0349826 386.506779,74.3999501 C387.782086,77.7649176 389.610539,80.6689306 391.992137,83.1119892 C394.373735,85.5550477 397.270065,87.4603261 400.681128,88.8278243 C404.092191,90.1953225 407.948843,90.8790716 412.251085,90.8790716 Z M462.817787,90.1415445 L462.817787,60.8248416 L466.7359,60.8248416 C468.180224,60.8248416 469.286515,60.9938583 470.054772,61.3318915 C470.82303,61.6699248 471.499096,62.2538004 472.082972,63.0835184 L472.082972,63.0835184 L490.936009,87.6984859 C491.427693,88.4974736 492.034617,89.104397 492.756779,89.519256 C493.478941,89.934115 494.577549,90.1415445 496.052603,90.1415445 L496.052603,90.1415445 L506.977223,90.1415445 L483.83731,58.9349284 C483.099783,57.859368 482.323843,56.9912372 481.50949,56.3305358 C480.695137,55.6698344 479.780911,55.155102 478.766811,54.7863384 C480.180405,54.0795416 481.547903,52.88106 482.869306,51.1908937 L482.869306,51.1908937 L505.317787,23.4875315 L494.623644,23.4875315 C493.332972,23.4875315 492.265094,23.6795958 491.420011,24.0637245 C490.574928,24.4478532 489.768257,25.1316023 489,26.1149718 L489,26.1149718 L470.607918,49.3931714 C470.054772,50.0999682 469.394071,50.6147007 468.625813,50.9373688 C467.857556,51.2600369 466.889552,51.4213709 465.7218,51.4213709 L465.7218,51.4213709 L462.817787,51.4213709 L462.817787,23.4875315 L450.418113,23.4875315 L450.418113,90.1415445 L462.817787,90.1415445 Z M556.855787,90.1415445 C561.926286,90.1415445 566.53583,89.3271916 570.68442,87.6984859 C574.83301,86.0697802 578.38236,83.7803731 581.332468,80.8302646 C584.282577,77.8801562 586.571984,74.3615372 588.200689,70.2744078 C589.829395,66.1872784 590.643748,61.7006551 590.643748,56.814538 C590.643748,51.9284208 589.829395,47.4417975 588.200689,43.3546681 C586.571984,39.2675387 584.282577,35.7566023 581.332468,32.821859 C578.38236,29.8871157 574.83301,27.5977086 570.68442,25.9536377 C566.53583,24.3095669 561.926286,23.4875315 556.855787,23.4875315 L556.855787,23.4875315 L531.457197,23.4875315 L531.457197,90.1415445 L556.855787,90.1415445 Z M556.855787,80.2771193 L543.902967,80.2771193 L543.902967,33.3519566 L556.855787,33.3519566 C560.113198,33.3519566 563.040259,33.8897368 565.636969,34.9652972 C568.233679,36.0408576 570.446261,37.585055 572.274713,39.5978894 C574.103166,41.6107238 575.501394,44.0691475 576.469399,46.9731605 C577.437403,49.8771735 577.921405,53.1576327 577.921405,56.814538 C577.921405,60.4714432 577.437403,63.7519024 576.469399,66.6559154 C575.501394,69.5599284 574.103166,72.0183521 572.274713,74.0311866 C570.446261,76.044021 568.233679,77.5882184 565.636969,78.6637787 C563.040259,79.7393391 560.113198,80.2771193 556.855787,80.2771193 L556.855787,80.2771193 Z M618.765262,90.8329761 C620.424698,90.8329761 622.137912,90.710055 623.904904,90.4642126 C625.671896,90.2183702 627.408157,89.7958286 629.113689,89.1965879 C630.81922,88.5973471 632.455609,87.7983594 634.022854,86.7996247 C635.590099,85.8008901 637.003692,84.5639957 638.263635,83.0889414 L638.263635,83.0889414 L634.990858,78.9403514 C634.529904,78.2335546 633.823107,77.8801562 632.870468,77.8801562 C632.163671,77.8801562 631.433826,78.0952683 630.680934,78.5254924 C629.928042,78.9557166 629.052228,79.4320362 628.053494,79.9544512 C627.054759,80.4768662 625.887008,80.9531858 624.55024,81.38341 C623.213472,81.8136341 621.623179,82.0287462 619.779361,82.0287462 C617.935544,82.0287462 616.25306,81.744491 614.73191,81.1759805 C613.21076,80.60747 611.89704,79.7470217 610.79075,78.5946356 C609.684459,77.4422495 608.79328,75.9825604 608.117214,74.2155683 C607.441147,72.4485763 607.010923,70.3512336 606.826541,67.9235401 L606.826541,67.9235401 L636.097149,67.9235401 C637.141979,67.9235401 637.848776,67.6239197 638.217539,67.024679 C638.586303,66.4254382 638.770685,65.2653695 638.770685,63.5444729 C638.770685,60.13341 638.255952,57.0987932 637.226487,54.4406226 C636.197022,51.7824519 634.775746,49.5391403 632.962658,47.7106876 C631.149571,45.882235 628.983085,44.4916891 626.463201,43.5390499 C623.943316,42.5864107 621.192955,42.1100911 618.212116,42.1100911 C614.678132,42.1100911 611.505229,42.724697 608.693407,43.9539089 C605.881585,45.1831208 603.499987,46.8502393 601.548613,48.9552646 C599.597239,51.0602899 598.099137,53.5340788 597.054307,56.3766312 C596.009477,59.2191837 595.487062,62.2538004 595.487062,65.4804816 C595.487062,69.6290716 596.086303,73.2782943 597.284784,76.4281497 C598.483266,79.5780051 600.127337,82.2208106 602.216997,84.3565662 C604.306657,86.4923218 606.765081,88.1056623 609.592268,89.1965879 C612.419455,90.2875134 615.47712,90.8329761 618.765262,90.8329761 Z M628.537496,61.0553189 L607.057019,61.0553189 C607.579434,57.6135257 608.785598,54.955355 610.675511,53.0808069 C612.565424,51.2062589 615.154452,50.2689848 618.442593,50.2689848 C620.13276,50.2689848 621.615497,50.5532401 622.890804,51.1217505 C624.166111,51.690261 625.218624,52.466201 626.048342,53.4495705 C626.87806,54.43294 627.500348,55.5776435 627.915207,56.8836811 C628.330066,58.1897187 628.537496,59.5802646 628.537496,61.0553189 L628.537496,61.0553189 Z M659.240354,90.8790716 C662.313384,90.8790716 665.025333,90.4872603 667.3762,89.7036377 C669.727068,88.9200152 671.70149,87.8290897 673.299465,86.4308612 C674.89744,85.0326327 676.103605,83.3731967 676.917957,81.4525531 C677.73231,79.5319096 678.139487,77.4345669 678.139487,75.1605249 C678.139487,73.2552466 677.809136,71.6265409 677.148435,70.2744078 C676.487733,68.9222748 675.61192,67.7622061 674.520994,66.7942017 C673.430069,65.8261974 672.193174,65.0272097 670.810311,64.3972386 C669.427448,63.7672675 668.021537,63.2064396 666.592578,62.7147549 C665.163619,62.2230701 663.757708,61.7697983 662.374845,61.3549393 C660.991981,60.9400803 659.755087,60.4714432 658.664161,59.9490282 C657.573236,59.4266132 656.697422,58.8196898 656.036721,58.1282581 C655.37602,57.4368265 655.045669,56.5840607 655.045669,55.569961 C655.045669,54.0334461 655.683323,52.7888691 656.95863,51.8362299 C658.233937,50.8835907 659.993247,50.4072711 662.236558,50.4072711 C663.680882,50.4072711 664.933142,50.5609226 665.993337,50.8682256 C667.053532,51.1755286 667.998489,51.5212444 668.828207,51.9053731 C669.657925,52.2895018 670.387769,52.6352176 671.01774,52.9425206 C671.647712,53.2498236 672.23927,53.4034751 672.792415,53.4034751 C673.31483,53.4034751 673.745054,53.3036016 674.083088,53.1038547 C674.421121,52.9041077 674.743789,52.5583919 675.051092,52.0667072 L675.051092,52.0667072 L677.632437,47.9642126 C675.85008,46.2125857 673.622133,44.798992 670.948597,43.7234317 C668.275061,42.6478713 665.309588,42.1100911 662.052176,42.1100911 C659.132798,42.1100911 656.559136,42.5019024 654.331189,43.2855249 C652.103243,44.0691475 650.24406,45.1139776 648.753641,46.4200152 C647.263221,47.7260528 646.133883,49.254885 645.365625,51.0065119 C644.597368,52.7581388 644.213239,54.6019566 644.213239,56.5379653 C644.213239,58.6276255 644.54359,60.4099826 645.204291,61.8850369 C645.864993,63.3600911 646.740806,64.6046681 647.831732,65.6187679 C648.922657,66.6328677 650.167234,67.4702683 651.565463,68.1309696 C652.963691,68.791671 654.39265,69.3678641 655.852339,69.8595488 C657.312028,70.3512336 658.740987,70.8045054 660.139215,71.2193644 C661.537444,71.6342234 662.782021,72.1028604 663.872947,72.6252755 C664.963872,73.1476905 665.839685,73.7622965 666.500387,74.4690933 C667.161088,75.1758901 667.491439,76.0824338 667.491439,77.1887245 C667.491439,77.9262516 667.34547,78.640731 667.053532,79.3321627 C666.761594,80.0235944 666.30064,80.6305177 665.670669,81.1529328 C665.040698,81.6753478 664.24171,82.0978894 663.273706,82.4205575 C662.305701,82.7432256 661.145633,82.9045597 659.7935,82.9045597 C658.072603,82.9045597 656.651327,82.7048127 655.529671,82.3053189 C654.408015,81.905825 653.432328,81.4756009 652.60261,81.0146464 C651.772892,80.553692 651.043048,80.1234678 650.413077,79.723974 C649.783106,79.3244801 649.114722,79.1247332 648.407925,79.1247332 C647.701128,79.1247332 647.117252,79.2630195 646.656298,79.5395922 C646.195343,79.8161649 645.79585,80.2156587 645.457816,80.7380738 L645.457816,80.7380738 L642.830376,85.0710456 C643.752285,85.9007636 644.820163,86.669021 646.034009,87.3758178 C647.247856,88.0826146 648.569259,88.6972205 649.998218,89.2196356 C651.427176,89.7420506 652.917596,90.149227 654.469476,90.4411649 C656.021356,90.7331027 657.611649,90.8790716 659.240354,90.8790716 Z M691.602649,36.2098742 C692.616749,36.2098742 693.569388,36.0178098 694.460566,35.6336811 C695.351745,35.2495524 696.127685,34.73482 696.788386,34.0894837 C697.449088,33.4441475 697.979185,32.6912552 698.378679,31.8308069 C698.778173,30.9703586 698.97792,30.0484497 698.97792,29.0650803 C698.97792,28.0509805 698.778173,27.0983413 698.378679,26.2071627 C697.979185,25.3159841 697.449088,24.5477267 696.788386,23.9023905 C696.127685,23.2570542 695.351745,22.7423218 694.460566,22.3581931 C693.569388,21.9740644 692.616749,21.782 691.602649,21.782 C690.619279,21.782 689.689688,21.9740644 688.813874,22.3581931 C687.938061,22.7423218 687.177486,23.2570542 686.53215,23.9023905 C685.886814,24.5477267 685.372081,25.3159841 684.987953,26.2071627 C684.603824,27.0983413 684.411759,28.0509805 684.411759,29.0650803 C684.411759,30.0484497 684.603824,30.9703586 684.987953,31.8308069 C685.372081,32.6912552 685.886814,33.4441475 686.53215,34.0894837 C687.177486,34.73482 687.938061,35.2495524 688.813874,35.6336811 C689.689688,36.0178098 690.619279,36.2098742 691.602649,36.2098742 Z M697.410675,90.1415445 L697.410675,42.8476182 L685.979005,42.8476182 L685.979005,90.1415445 L697.410675,90.1415445 Z M725.670475,106.782 C729.29665,106.782 732.531014,106.313363 735.373566,105.376089 C738.216118,104.438815 740.613082,103.20192 742.564455,101.665406 C744.515829,100.128891 746.006249,98.3772639 747.035713,96.4105249 C748.065178,94.443786 748.579911,92.4155864 748.579911,90.3259262 C748.579911,88.0826146 748.142004,86.2464794 747.266191,84.8175206 C746.390377,83.3885618 745.230309,82.2592234 743.785985,81.4295054 C742.341661,80.5997874 740.69759,79.9928641 738.853772,79.6087354 C737.009954,79.2246067 735.120041,78.9557166 733.184032,78.8020651 C731.248024,78.6484136 729.35811,78.5485401 727.514293,78.5024447 C725.670475,78.4563492 724.026404,78.3411106 722.58208,78.1567289 C721.137756,77.9723471 719.977687,77.6573615 719.101874,77.2117722 C718.226061,76.7661829 717.788154,76.0670687 717.788154,75.1144295 C717.788154,74.0081388 718.525681,73.0094042 720.000735,72.1182256 C720.830453,72.2718771 721.675536,72.3947983 722.535985,72.4869892 C723.396433,72.57918 724.287612,72.6252755 725.20952,72.6252755 C727.821596,72.6252755 730.256972,72.2641945 732.515648,71.5420325 C734.774325,70.8198706 736.733382,69.7980882 738.392818,68.4766855 C740.052254,67.1552827 741.350609,65.5496247 742.287883,63.6597115 C743.225157,61.7697983 743.693794,59.6570904 743.693794,57.3215879 C743.693794,55.3855792 743.371126,53.603222 742.725789,51.9745163 L742.725789,51.9745163 L746.96657,51.1908937 C748.595276,50.8835907 749.409629,50.0538727 749.409629,48.7017397 L749.409629,48.7017397 L749.409629,44.4609588 L735.811473,44.4609588 C734.336418,43.6619711 732.707713,43.0550477 730.925356,42.6401887 C729.142998,42.2253297 727.23772,42.0179002 725.20952,42.0179002 C722.505254,42.0179002 720.008418,42.3712986 717.719011,43.0780954 C715.429604,43.7848923 713.447499,44.8066746 711.772698,46.1434425 C710.097897,47.4802104 708.79186,49.093551 707.854585,50.9834642 C706.917311,52.8733774 706.448674,54.9860853 706.448674,57.3215879 C706.448674,60.2102357 707.132424,62.73012 708.499922,64.8812408 C709.86742,67.0323615 711.749651,68.7532581 714.146614,70.0439306 C713.101784,70.5663456 712.19524,71.1579038 711.426982,71.8186052 C710.658725,72.4793066 710.021071,73.1784208 709.514021,73.9159479 C709.006972,74.6534751 708.622843,75.3986847 708.361635,76.151577 C708.100428,76.9044693 707.969824,77.6343138 707.969824,78.3411106 C707.969824,80.0927375 708.338588,81.5063312 709.076115,82.5818915 C709.813642,83.6574519 710.812377,84.5179002 712.072319,85.1632364 C709.736816,86.054415 707.900681,87.245214 706.563913,88.7356334 C705.227145,90.2260528 704.558761,92.0775531 704.558761,94.2901345 C704.558761,95.9188402 704.988985,97.4860853 705.849434,98.9918698 C706.709882,100.497654 708.01592,101.82674 709.767546,102.979126 C711.519173,104.131512 713.71639,105.053421 716.359195,105.744852 C719.002001,106.436284 722.10576,106.782 725.670475,106.782 Z M725.20952,65.3421952 C723.826657,65.3421952 722.605128,65.1501309 721.544933,64.7660022 C720.484737,64.3818735 719.608924,63.8440933 718.917492,63.1526616 C718.226061,62.4612299 717.703645,61.6391945 717.350247,60.6865553 C716.996849,59.7339161 716.820149,58.7044512 716.820149,57.5981605 C716.820149,55.262658 717.519264,53.4111576 718.917492,52.0436594 C720.315721,50.6761612 722.413063,49.9924121 725.20952,49.9924121 C728.005977,49.9924121 730.10332,50.6761612 731.501549,52.0436594 C732.899777,53.4111576 733.598891,55.262658 733.598891,57.5981605 C733.598891,58.7351815 733.422192,59.7800116 733.068794,60.7326508 C732.715395,61.6852899 732.19298,62.4996428 731.501549,63.1757093 C730.810117,63.8517758 729.941986,64.3818735 728.897156,64.7660022 C727.852326,65.1501309 726.623114,65.3421952 725.20952,65.3421952 Z M725.900952,98.6692017 C723.811292,98.6692017 722.0443,98.5232328 720.599976,98.231295 C719.155652,97.9393572 717.980218,97.5321808 717.073674,97.0097657 C716.167131,96.4873507 715.506429,95.8650622 715.09157,95.1429002 C714.676711,94.4207383 714.469282,93.6447983 714.469282,92.8150803 C714.469282,91.5551381 714.861093,90.4488474 715.644716,89.4962082 C716.428338,88.5435691 717.450121,87.713851 718.710063,87.0070542 C720.154387,87.191436 721.637123,87.3143572 723.158273,87.3758178 C724.679423,87.4372784 726.154477,87.5064215 727.583436,87.5832473 C729.012395,87.660073 730.364528,87.7753116 731.639835,87.9289631 C732.915142,88.0826146 734.029115,88.3207744 734.981755,88.6434425 C735.934394,88.9661106 736.687286,89.4193825 737.240431,90.0032581 C737.793577,90.5871338 738.070149,91.340026 738.070149,92.2619349 C738.070149,93.1838438 737.839672,94.0366095 737.378718,94.8202321 C736.917763,95.6038547 736.187919,96.2799212 735.189184,96.8484317 C734.19045,97.4169422 732.922825,97.8625315 731.38631,98.1851996 C729.849795,98.5078677 728.021343,98.6692017 725.900952,98.6692017 Z M766.883095,90.1415445 L766.883095,55.9387245 C768.41961,54.4022097 770.048315,53.188363 771.769212,52.2971844 C773.490109,51.4060058 775.333926,50.9604165 777.300665,50.9604165 C780.004931,50.9604165 782.017766,51.7517216 783.339169,53.3343319 C784.660571,54.9169422 785.321273,57.1525712 785.321273,60.0412191 L785.321273,60.0412191 L785.321273,90.1415445 L796.706847,90.1415445 L796.706847,60.0412191 C796.706847,57.3984136 796.361132,54.9784027 795.6697,52.7811866 C794.978268,50.5839704 793.964169,48.6940571 792.627401,47.1114469 C791.290633,45.5288366 789.623514,44.2996247 787.626045,43.4238113 C785.628576,42.5479978 783.339169,42.1100911 780.757824,42.1100911 C779.159848,42.1100911 777.684794,42.2714252 776.332661,42.5940933 C774.980528,42.9167614 773.712903,43.3623507 772.529787,43.9308612 C771.34667,44.4993717 770.225015,45.1908033 769.164819,46.0051562 C768.104624,46.819509 767.098207,47.7030051 766.145568,48.6556443 L766.145568,48.6556443 L765.361945,44.9219132 C764.900991,43.5390499 763.932986,42.8476182 762.457932,42.8476182 L762.457932,42.8476182 L755.49752,42.8476182 L755.49752,90.1415445 L766.883095,90.1415445 Z M846.127749,90.8790716 C849.815384,90.8790716 853.088161,90.3182437 855.946079,89.1965879 C858.803996,88.074932 861.224007,86.5384172 863.206111,84.5870434 C865.188215,82.6356696 866.694,80.3462625 867.723465,77.7188221 C868.75293,75.0913818 869.267662,72.2718771 869.267662,69.260308 C869.267662,66.4945813 868.829755,64.1437137 867.953942,62.207705 C867.078129,60.2716963 865.91806,58.635308 864.473736,57.2985401 C863.029412,55.9617722 861.385341,54.8554816 859.541523,53.9796681 C857.697706,53.1038547 855.807792,52.3355973 853.871784,51.6748959 C851.935775,51.0141945 850.045862,50.391906 848.202044,49.8080304 C846.358226,49.2241547 844.714155,48.5634534 843.269831,47.8259262 C841.825507,47.0883991 840.665439,46.1972205 839.789625,45.1523905 C838.913812,44.1075604 838.475905,42.8015228 838.475905,41.2342777 C838.475905,40.0050658 838.691017,38.8757274 839.121241,37.8462625 C839.551465,36.8167975 840.204484,35.9333015 841.080298,35.1957744 C841.956111,34.4582473 843.039354,33.8820542 844.330027,33.4671952 C845.620699,33.0523362 847.126484,32.8449067 848.84738,32.8449067 C850.752659,32.8449067 852.404412,33.0830665 853.80264,33.5593861 C855.200869,34.0357057 856.422398,34.5658033 857.467228,35.149679 C858.512058,35.7335546 859.41092,36.2636522 860.163812,36.7399718 C860.916704,37.2162914 861.615818,37.4544512 862.261155,37.4544512 C862.87576,37.4544512 863.390493,37.3084823 863.805352,37.0165445 C864.220211,36.7246067 864.612022,36.2559696 864.980786,35.6106334 L864.980786,35.6106334 L868.069181,29.7565119 C865.733678,27.5439306 862.906491,25.823034 859.587619,24.5938221 C856.268747,23.3646103 852.642572,22.7500043 848.709094,22.7500043 C845.20584,22.7500043 842.10208,23.2877845 839.397814,24.3633449 C836.693548,25.4389053 834.419506,26.8678641 832.575688,28.6502213 C830.73187,30.4325785 829.325959,32.4761432 828.357955,34.7809154 C827.389951,37.0856876 826.905948,39.4519205 826.905948,41.8796139 C826.905948,44.9219132 827.343855,47.4802104 828.219669,49.5545054 C829.095482,51.6288004 830.255551,53.3573796 831.699875,54.740243 C833.144199,56.1231063 834.78827,57.2447621 836.632087,58.1052104 C838.475905,58.9656587 840.350453,59.7031858 842.255732,60.3177918 C844.16101,60.9323977 846.035558,61.5009082 847.879376,62.0233232 C849.723194,62.5457383 851.367264,63.1833919 852.811588,63.9362842 C854.255912,64.6891764 855.415981,65.6187679 856.291794,66.7250586 C857.167608,67.8313492 857.605515,69.260308 857.605515,71.0119349 C857.605515,74.1464252 856.63751,76.5510709 854.701502,78.225872 C852.765493,79.9006732 850.030497,80.7380738 846.496512,80.7380738 C844.19174,80.7380738 842.217319,80.4230882 840.573248,79.7931171 C838.929177,79.1631461 837.492536,78.4640318 836.263324,77.6957744 C835.034112,76.927517 833.973917,76.2284027 833.082738,75.5984317 C832.191559,74.9684606 831.361841,74.6534751 830.593584,74.6534751 C830.040439,74.6534751 829.518024,74.799444 829.026339,75.0913818 C828.534654,75.3833196 828.13516,75.7444006 827.827857,76.1746247 L827.827857,76.1746247 L824.186317,82.1209371 C825.47699,83.4423398 826.952044,84.6408214 828.61148,85.7163818 C830.270916,86.7919422 832.045591,87.713851 833.935504,88.4821085 C835.825417,89.2503659 837.799839,89.8419241 839.858768,90.2567831 C841.917698,90.6716421 844.007358,90.8790716 846.127749,90.8790716 Z M888.216182,105.583518 C889.322473,105.583518 890.144508,105.376089 890.682289,104.96123 C891.220069,104.546371 891.657975,103.939448 891.996009,103.14046 L891.996009,103.14046 L917.763362,42.8476182 L908.636464,42.8476182 C907.929667,42.8476182 907.292014,43.0473651 906.723503,43.446859 C906.154993,43.8463529 905.747816,44.3534027 905.501974,44.9680087 L905.501974,44.9680087 L896.006312,69.4446898 C895.668279,70.2744078 895.360976,71.1118084 895.084404,71.9568915 C894.807831,72.8019747 894.531258,73.6547404 894.254686,74.5151887 C894.039573,73.6547404 893.816779,72.8096573 893.586302,71.9799393 C893.355824,71.1502213 893.071569,70.3205033 892.733536,69.4907852 L892.733536,69.4907852 L882.684729,44.9680087 C882.438887,44.4148633 882.06244,43.9231786 881.555391,43.4929544 C881.048341,43.0627303 880.349226,42.8476182 879.458048,42.8476182 L879.458048,42.8476182 L869.455336,42.8476182 L888.584946,86.5921952 L879.73462,105.583518 L888.216182,105.583518 Z M934.40711,90.8790716 C937.48014,90.8790716 940.192089,90.4872603 942.542956,89.7036377 C944.893824,88.9200152 946.868245,87.8290897 948.466221,86.4308612 C950.064196,85.0326327 951.27036,83.3731967 952.084713,81.4525531 C952.899066,79.5319096 953.306243,77.4345669 953.306243,75.1605249 C953.306243,73.2552466 952.975892,71.6265409 952.31519,70.2744078 C951.654489,68.9222748 950.778676,67.7622061 949.68775,66.7942017 C948.596825,65.8261974 947.35993,65.0272097 945.977067,64.3972386 C944.594203,63.7672675 943.188292,63.2064396 941.759334,62.7147549 C940.330375,62.2230701 938.924464,61.7697983 937.5416,61.3549393 C936.158737,60.9400803 934.921843,60.4714432 933.830917,59.9490282 C932.739992,59.4266132 931.864178,58.8196898 931.203477,58.1282581 C930.542775,57.4368265 930.212425,56.5840607 930.212425,55.569961 C930.212425,54.0334461 930.850078,52.7888691 932.125386,51.8362299 C933.400693,50.8835907 935.160002,50.4072711 937.403314,50.4072711 C938.847638,50.4072711 940.099898,50.5609226 941.160093,50.8682256 C942.220288,51.1755286 943.165245,51.5212444 943.994963,51.9053731 C944.824681,52.2895018 945.554525,52.6352176 946.184496,52.9425206 C946.814467,53.2498236 947.406026,53.4034751 947.959171,53.4034751 C948.481586,53.4034751 948.91181,53.3036016 949.249843,53.1038547 C949.587877,52.9041077 949.910545,52.5583919 950.217848,52.0667072 L950.217848,52.0667072 L952.799193,47.9642126 C951.016835,46.2125857 948.788889,44.798992 946.115353,43.7234317 C943.441817,42.6478713 940.476344,42.1100911 937.218932,42.1100911 C934.299554,42.1100911 931.725892,42.5019024 929.497945,43.2855249 C927.269999,44.0691475 925.410816,45.1139776 923.920397,46.4200152 C922.429977,47.7260528 921.300639,49.254885 920.532381,51.0065119 C919.764124,52.7581388 919.379995,54.6019566 919.379995,56.5379653 C919.379995,58.6276255 919.710346,60.4099826 920.371047,61.8850369 C921.031749,63.3600911 921.907562,64.6046681 922.998488,65.6187679 C924.089413,66.6328677 925.33399,67.4702683 926.732219,68.1309696 C928.130447,68.791671 929.559406,69.3678641 931.019095,69.8595488 C932.478784,70.3512336 933.907743,70.8045054 935.305971,71.2193644 C936.7042,71.6342234 937.948777,72.1028604 939.039702,72.6252755 C940.130628,73.1476905 941.006441,73.7622965 941.667143,74.4690933 C942.327844,75.1758901 942.658195,76.0824338 942.658195,77.1887245 C942.658195,77.9262516 942.512226,78.640731 942.220288,79.3321627 C941.92835,80.0235944 941.467396,80.6305177 940.837425,81.1529328 C940.207454,81.6753478 939.408466,82.0978894 938.440462,82.4205575 C937.472457,82.7432256 936.312389,82.9045597 934.960256,82.9045597 C933.239359,82.9045597 931.818083,82.7048127 930.696427,82.3053189 C929.574771,81.905825 928.599084,81.4756009 927.769366,81.0146464 C926.939648,80.553692 926.209804,80.1234678 925.579833,79.723974 C924.949861,79.3244801 924.281478,79.1247332 923.574681,79.1247332 C922.867884,79.1247332 922.284008,79.2630195 921.823054,79.5395922 C921.362099,79.8161649 920.962606,80.2156587 920.624572,80.7380738 L920.624572,80.7380738 L917.997132,85.0710456 C918.919041,85.9007636 919.986919,86.669021 921.200765,87.3758178 C922.414612,88.0826146 923.736015,88.6972205 925.164974,89.2196356 C926.593932,89.7420506 928.084352,90.149227 929.636232,90.4411649 C931.188112,90.7331027 932.778405,90.8790716 934.40711,90.8790716 Z M976.541639,90.8790716 C978.846411,90.8790716 981.074358,90.5256732 983.225479,89.8188764 C985.376599,89.1120795 987.281878,88.0672495 988.941314,86.6843861 L988.941314,86.6843861 L985.530251,81.1529328 C985.284408,80.8148995 985.053931,80.5613745 984.838819,80.3923579 C984.623707,80.2233413 984.347134,80.138833 984.009101,80.138833 C983.732528,80.138833 983.455956,80.2233413 983.179383,80.3923579 C982.90281,80.5613745 982.587825,80.7380738 982.234426,80.9224555 C981.881028,81.1068373 981.466169,81.2835365 980.989849,81.4525531 C980.51353,81.6215698 979.921972,81.7060781 979.215175,81.7060781 C977.955233,81.7060781 976.964181,81.2912191 976.242019,80.4615011 C975.519857,79.6317831 975.158776,78.479397 975.158776,77.0043427 L975.158776,77.0043427 L975.158776,51.3752755 L987.788928,51.3752755 L987.788928,43.2624772 L975.158776,43.2624772 L975.158776,28.3736486 L969.258559,28.3736486 C968.582492,28.3736486 968.029347,28.5426652 967.599123,28.8806985 C967.168899,29.2187317 966.876961,29.6950513 966.723309,30.3096573 L966.723309,30.3096573 L964.326346,43.2163818 L956.720598,44.4609588 L956.720598,48.9783124 C956.720598,49.7773001 956.93571,50.3765409 957.365934,50.7760347 C957.796158,51.1755286 958.318573,51.3752755 958.933179,51.3752755 L958.933179,51.3752755 L963.773201,51.3752755 L963.773201,77.7879653 C963.773201,81.8750947 964.871809,85.0787281 967.069025,87.3988655 C969.266241,89.7190029 972.423779,90.8790716 976.541639,90.8790716 Z M1014.2971,90.8329761 C1015.95654,90.8329761 1017.66975,90.710055 1019.43674,90.4642126 C1021.20373,90.2183702 1022.94,89.7958286 1024.64553,89.1965879 C1026.35106,88.5973471 1027.98745,87.7983594 1029.55469,86.7996247 C1031.12194,85.8008901 1032.53553,84.5639957 1033.79547,83.0889414 L1033.79547,83.0889414 L1030.5227,78.9403514 C1030.06174,78.2335546 1029.35495,77.8801562 1028.40231,77.8801562 C1027.69551,77.8801562 1026.96567,78.0952683 1026.21277,78.5254924 C1025.45988,78.9557166 1024.58407,79.4320362 1023.58533,79.9544512 C1022.5866,80.4768662 1021.41885,80.9531858 1020.08208,81.38341 C1018.74531,81.8136341 1017.15502,82.0287462 1015.3112,82.0287462 C1013.46738,82.0287462 1011.7849,81.744491 1010.26375,81.1759805 C1008.7426,80.60747 1007.42888,79.7470217 1006.32259,78.5946356 C1005.2163,77.4422495 1004.32512,75.9825604 1003.64905,74.2155683 C1002.97299,72.4485763 1002.54276,70.3512336 1002.35838,67.9235401 L1002.35838,67.9235401 L1031.62899,67.9235401 C1032.67382,67.9235401 1033.38061,67.6239197 1033.74938,67.024679 C1034.11814,66.4254382 1034.30252,65.2653695 1034.30252,63.5444729 C1034.30252,60.13341 1033.78779,57.0987932 1032.75833,54.4406226 C1031.72886,51.7824519 1030.30759,49.5391403 1028.4945,47.7106876 C1026.68141,45.882235 1024.51492,44.4916891 1021.99504,43.5390499 C1019.47516,42.5864107 1016.72479,42.1100911 1013.74396,42.1100911 C1010.20997,42.1100911 1007.03707,42.724697 1004.22525,43.9539089 C1001.41342,45.1831208 999.031826,46.8502393 997.080452,48.9552646 C995.129078,51.0602899 993.630976,53.5340788 992.586146,56.3766312 C991.541316,59.2191837 991.018901,62.2538004 991.018901,65.4804816 C991.018901,69.6290716 991.618142,73.2782943 992.816623,76.4281497 C994.015105,79.5780051 995.659176,82.2208106 997.748836,84.3565662 C999.838496,86.4923218 1002.29692,88.1056623 1005.12411,89.1965879 C1007.95129,90.2875134 1011.00896,90.8329761 1014.2971,90.8329761 Z M1024.06933,61.0553189 L1002.58886,61.0553189 C1003.11127,57.6135257 1004.31744,54.955355 1006.20735,53.0808069 C1008.09726,51.2062589 1010.68629,50.2689848 1013.97443,50.2689848 C1015.6646,50.2689848 1017.14734,50.5532401 1018.42264,51.1217505 C1019.69795,51.690261 1020.75046,52.466201 1021.58018,53.4495705 C1022.4099,54.43294 1023.03219,55.5776435 1023.44705,56.8836811 C1023.86191,58.1897187 1024.06933,59.5802646 1024.06933,61.0553189 L1024.06933,61.0553189 Z M1053.11276,90.1415445 L1053.11276,55.5238655 C1054.34197,54.1102719 1055.67105,52.9962986 1057.10001,52.1819458 C1058.52897,51.3675929 1060.07317,50.9604165 1061.73261,50.9604165 C1064.19103,50.9604165 1066.05789,51.6825785 1067.3332,53.1269024 C1068.60851,54.5712263 1069.24616,56.8759986 1069.24616,60.0412191 L1069.24616,60.0412191 L1069.24616,90.1415445 L1080.67783,90.1415445 L1080.67783,60.0412191 C1080.67783,58.5661649 1080.89295,57.2601273 1081.32317,56.1231063 C1081.75339,54.9860853 1082.34495,54.0411287 1083.09784,53.2882364 C1083.85074,52.5353442 1084.72655,51.9591511 1085.72528,51.5596573 C1086.72402,51.1601634 1087.80726,50.9604165 1088.97501,50.9604165 C1091.52563,50.9604165 1093.46164,51.7209913 1094.78304,53.242141 C1096.10444,54.7632907 1096.76514,57.02965 1096.76514,60.0412191 L1096.76514,60.0412191 L1096.76514,90.1415445 L1108.15072,90.1415445 L1108.15072,60.0412191 C1108.15072,57.1833015 1107.78964,54.6480521 1107.06748,52.4354707 C1106.34531,50.2228894 1105.2928,48.3483413 1103.90994,46.8118265 C1102.52707,45.2753116 1100.82154,44.1075604 1098.79334,43.3085727 C1096.76514,42.509585 1094.44501,42.1100911 1091.83293,42.1100911 C1090.32715,42.1100911 1088.82904,42.2791077 1087.33863,42.617141 C1085.84821,42.9551743 1084.44229,43.4775893 1083.12089,44.1843861 C1081.79949,44.8911829 1080.58564,45.8054093 1079.47935,46.9270651 C1078.37306,48.0487209 1077.45115,49.3931714 1076.71363,50.9604165 C1075.76099,48.2868807 1074.32434,46.1434425 1072.4037,44.530102 C1070.48306,42.9167614 1068.03232,42.1100911 1065.05148,42.1100911 C1063.63788,42.1100911 1062.33953,42.2714252 1061.15641,42.5940933 C1059.9733,42.9167614 1058.86701,43.3546681 1057.83754,43.9078134 C1056.80808,44.4609588 1055.84007,45.1216602 1054.93353,45.8899176 C1054.02698,46.658175 1053.15885,47.5032581 1052.32913,48.425167 L1052.32913,48.425167 L1051.59161,44.9219132 C1051.13065,43.5390499 1050.16265,42.8476182 1048.68759,42.8476182 L1048.68759,42.8476182 L1041.72718,42.8476182 L1041.72718,90.1415445 L1053.11276,90.1415445 Z" id="MOD.UKDesignSystem" fill="#FFFFFF" fill-rule="nonzero"></path>
                <g id="MOD.UK-Logomark">
                    <path d="M68.4279465,50.9197561 L69.0635924,51.372212 L70.115554,52.1349426 L71.18062,52.918577 L72.2587727,53.7231138 L73.3499944,54.5485516 L74.4542678,55.3948892 L76.1351109,56.7035792 L77.2719361,57.6021598 L78.4217512,58.5216352 L79.5845387,59.462004 L80.760281,60.4232648 L81.9489605,61.4054163 L83.1505595,62.4084571 L84.9771439,63.9521825 L85.5924461,64.4772008 L86.8326984,65.5429011 L88.0857999,66.629485 L89.351733,67.7369514 L90.6304802,68.8652986 L91.0961942,69.279698 C82.39935,85.7225826 69.428952,99.2960166 52.185,110 L51.1465185,109.348631 C37.8298923,100.908677 27.1136269,90.7227265 18.9977223,78.7907805 C39.7751773,73.3798063 56.1015528,64.292051 67.9025674,51.4952271 L68.4279465,50.9197561 Z" id="Path" fill="#4368F5"></path>
                    <path d="M47.2629024,0.0442440175 C40.0761959,23.0908685 39.1235639,43.4857403 44.4943831,61.1809404 C36.0789185,66.0324559 26.281099,69.8263613 15.0876515,72.5569155 C5.0287023,55.1396729 0,34.3452041 0,10.1742451 C12.0785362,3.98246216 27.5984114,0.612363165 46.5596256,0.0631529598 L47.2629024,0.0442440175 Z" id="Path" fill="#E84651"></path>
                    <path d="M104.37,10.1742451 C104.37,29.9561869 101.001737,47.4765299 94.2652108,62.735274 L93.2348213,61.8305054 L91.9273694,60.6922727 L90.6326573,59.5753956 L89.3506674,58.4798728 L88.081382,57.4057028 L86.8247837,56.3528842 L85.5808547,55.3214157 L83.7386778,53.8142413 L81.9249082,52.3550968 L80.7314808,51.4090147 L79.550635,50.4842758 L78.3823529,49.5808787 L77.2266171,48.6988219 L76.08341,47.8381041 L74.6719927,46.7922127 L73.2800895,45.7796586 L72.1805942,44.9936164 L71.0935483,44.2289069 L70.0189343,43.4855288 L68.9567346,42.7634807 L68.4302847,42.410455 L67.3866735,41.7203993 L66.8695078,41.383369 L65.5901094,40.5641179 L64.3299915,39.7781858 L63.8313352,39.4731417 L62.8432519,38.8790444 L62.3538206,38.589991 L61.3841675,38.0278737 L60.9039413,37.7548095 L59.9526788,37.224669 L59.4816381,36.9675924 L58.5487265,36.4694256 C58.1368142,36.2527547 57.7285204,36.0423991 57.3238379,35.8383582 L56.7195219,35.5370328 L55.8231935,35.1028041 L54.9390245,34.6898853 C52.5609119,33.6004479 50.316382,32.7454476 48.2036261,32.1249939 C48.7421517,22.1742099 50.8786594,11.4681639 54.6258305,0 C75.0412141,0.247573359 91.6222321,3.63939593 104.37,10.1742451 Z" id="Path" fill="#5CC2E7"></path>
                </g>
            </g>
        </g>
    </g>
</svg>
