<svg xmlns="http://www.w3.org/2000/svg" width="18" height="18" viewBox="0 0 18 18">
  <path fill="#FFF" fill-rule="evenodd" d="M8.99917125,3 C4.02995795,3 0,7.02940545 0,12.0002763 C0,15.9766414 2.57853218,19.3496731 6.15488505,20.5397649 C6.60517511,20.6226404 6.76926855,20.3447313 6.76926855,20.1060499 C6.76926855,19.8927837 6.7615335,19.326468 6.75711348,18.5756162 C4.25372172,19.1192793 3.72552871,17.3689493 3.72552871,17.3689493 C3.31612388,16.3291384 2.72605052,16.0523343 2.72605052,16.0523343 C1.90889837,15.4943061 2.78793088,15.5053562 2.78793088,15.5053562 C3.69127352,15.5688941 4.16642623,16.433009 4.16642623,16.433009 C4.9692133,17.8081893 6.27312072,17.4109396 6.78584364,17.1805458 C6.86761411,16.5993124 7.10021793,16.2026152 7.35713189,15.9777464 C5.35872801,15.7506676 3.25755855,14.9782682 3.25755855,11.5295436 C3.25755855,10.547193 3.60839805,9.7433009 4.18410633,9.11455232 C4.0912858,8.88692102 3.78243654,7.97142331 4.27250683,6.73271126 C4.27250683,6.73271126 5.02777863,6.49071488 6.74716842,7.65539151 C7.46487001,7.45538537 8.23505939,7.3559348 9.00027625,7.35206728 C9.76494061,7.3559348 10.5345775,7.45538537 11.2533841,7.65539151 C12.9716689,6.49071488 13.7258357,6.73271126 13.7258357,6.73271126 C14.217011,7.97142331 13.9081617,8.88692102 13.8158937,9.11455232 C14.392707,9.7433009 14.7407839,10.547193 14.7407839,11.5295436 C14.7407839,14.9871083 12.6362995,15.7479051 10.631818,15.9705639 C10.9544799,16.2484729 11.242334,16.7976611 11.242334,17.6374659 C11.242334,18.8402652 11.231284,19.8110132 11.231284,20.1060499 C11.231284,20.3469413 11.3937199,20.6270604 11.8500875,20.5392124 C15.4236778,19.3463581 18,15.9755364 18,12.0002763 C18,7.02940545 13.9700421,3 8.99917125,3" transform="translate(0 -3)"/>
</svg>
