<svg xmlns="https://www.w3.org/2000/svg" width="246" height="36" viewBox="0 0 246 36">
  <g fill="none">
    <path fill="#738899" d="M17.9937274,0.234105696 L21.3173763,3.58690943 C21.6274543,3.89970745 21.6274543,4.39822929 21.3173763,4.71102731 L16.3270579,9.75489532 L11.8890661,5.26819877 L16.8793844,0.234105696 C17.0267521,0.0842738421 17.2273238,2.27373675e-13 17.4365559,2.27373675e-13 C17.645788,2.27373675e-13 17.8463597,0.0842738421 17.9937274,0.234105696 Z M8.55572721,17.5846207 L21.3173763,30.467989 C21.6274543,30.780787 21.6274543,31.2793088 21.3173763,31.5823319 L17.9937274,34.9449106 C17.8463597,35.0947424 17.645788,35.1790163 17.4365559,35.1790163 C17.2273238,35.1790163 17.0267521,35.0947424 16.8793844,34.9449106 L0.232069994,18.1515671 C0.0835410261,18.0029067 0,17.8005756 0,17.5895081 C0,17.3784407 0.0835410261,17.1761095 0.232069994,17.0274492 L5.22238835,11.9933561 L9.67007014,16.4702777 L8.55572721,17.5846207 Z"/>
    <path fill="#FFF" d="M5.23207829 25.424121L9.67007014 29.9108175 4.67006185 34.9449106C4.52269421 35.0947424 4.3221225 35.1790163 4.11289038 35.1790163 3.90365827 35.1790163 3.70308656 35.0947424 3.55571892 34.9449106L.232069994 31.5823319C-.0709023649 31.2737529-.0709023649 30.7765679.232069994 30.467989L5.22238835 25.414346 5.23207829 25.424121zM21.3173763 18.1515671L16.3270579 23.1856601 11.8890661 18.7087385 12.9937191 17.5846207.232069994 4.71102731C.0835410261 4.56236696 0 4.36003585 0 4.14896837 0 3.93790089.0835410261 3.73556978.232069994 3.58690943L3.55571892.234105696C3.70308656.0842738421 3.90365827 0 4.11289038 0 4.3221225 0 4.52269421.0842738421 4.67006185.234105696L21.3173763 17.0274492C21.6274543 17.3402472 21.6274543 17.8387691 21.3173763 18.1515671zM41.0312798 24.6328438L41.0312798 14.2166698C41.0312798 13.7787526 41.00782 13.3017356 40.9609002 12.7856189L40.9609002 12.7856189 49.8169941 24.0932672C49.9733931 24.288766 50.1356571 24.4275701 50.303786 24.5096796 50.4719149 24.5917891 50.6810986 24.6328438 50.931337 24.6328438L50.931337 24.6328438 52.5500668 24.6328438 52.5500668 7.67137135 49.7700744 7.67137135 49.7700744 17.981976C49.7700744 18.2087545 49.7778943 18.455083 49.7935342 18.7209613 49.8091741 18.9868396 49.828724 19.2566279 49.8521839 19.5303261L49.8521839 19.5303261 40.9609002 8.17575815C40.8748808 8.06627885 40.7966813 7.97830441 40.7263017 7.91183483 40.6559222 7.84536525 40.5835876 7.79453557 40.5092981 7.75934579 40.4350086 7.72415602 40.3489891 7.70069617 40.2512397 7.68896624 40.1534904 7.67723632 40.0381461 7.67137135 39.9052069 7.67137135L39.9052069 7.67137135 38.2512874 7.67137135 38.2512874 24.6328438 41.0312798 24.6328438zM57.7464238 24.8205226C58.1765211 24.8205226 58.5694736 24.7833778 58.9252813 24.7090883 59.2810891 24.6347988 59.615392 24.5272745 59.92819 24.3865154 60.240988 24.2457562 60.5420561 24.0717623 60.8313942 23.8645337 61.1207324 23.657305 61.4178905 23.4168415 61.7228686 23.1431432L61.7228686 23.1431432 61.980927 24.0111577C62.0669464 24.2613961 62.1842457 24.4275701 62.3328247 24.5096796 62.4814038 24.5917891 62.6925424 24.6328438 62.9662407 24.6328438L62.9662407 24.6328438 64.2799924 24.6328438 64.2799924 17.031852C64.2799924 16.3515163 64.180288 15.7259203 63.9808793 15.1550639 63.7814705 14.5842075 63.4901774 14.0935056 63.1069998 13.6829582 62.7238222 13.2724108 62.2546252 12.9517929 61.6994087 12.7211043 61.1441923 12.4904158 60.5146862 12.3750715 59.8108907 12.3750715 57.8637231 12.3750715 56.1980736 13.0084875 54.8139424 14.2753195L54.8139424 14.2753195 55.3300591 15.2019836C55.4160786 15.3427427 55.5294679 15.4659069 55.670227 15.5714763 55.8109861 15.6770456 55.983025 15.7298302 56.1863437 15.7298302 56.4209422 15.7298302 56.6340359 15.6750906 56.8256246 15.5656113 57.0172134 15.456132 57.2303071 15.3329678 57.4649056 15.1961186 57.6995041 15.0592695 57.9712474 14.9361053 58.2801354 14.826626 58.5890235 14.7171467 58.978066 14.662407 59.447263 14.662407 60.0963189 14.662407 60.5928858 14.8559508 60.9369636 15.2430383 61.2810414 15.6301259 61.4530803 16.2263971 61.4530803 17.031852L61.4530803 17.031852 61.4530803 17.7356475C60.5381461 17.7591074 59.7248713 17.8275319 59.0132558 17.9409212 58.3016403 18.0543105 57.6779992 18.2009346 57.1423326 18.3807934 56.606666 18.5606523 56.1550639 18.771791 55.7875262 19.0142094 55.4199886 19.2566279 55.1208755 19.5146862 54.8901869 19.7883845 54.6594984 20.0620828 54.4933244 20.349466 54.3916651 20.650534 54.2900057 20.9516021 54.239176 21.2546252 54.239176 21.5596033 54.239176 22.0991799 54.3251955 22.5722869 54.4972344 22.9789243 54.6692733 23.3855617 54.9116918 23.7257295 55.2244898 23.9994278 55.5372878 24.2731261 55.9087355 24.4783998 56.3388327 24.6152489 56.76893 24.752098 57.238127 24.8205226 57.7464238 24.8205226zM58.6378981 22.8264352C58.1530612 22.8264352 57.7601087 22.7169559 57.4590406 22.4979973 57.1579725 22.2790387 57.0074385 21.915411 57.0074385 21.4071142 57.0074385 21.1490559 57.081728 20.9105474 57.2303071 20.6915888 57.3788861 20.4726302 57.6252146 20.2810414 57.9692924 20.1168224 58.3133702 19.9526035 58.7708373 19.8177093 59.3416937 19.71214 59.9125501 19.6065707 60.6163456 19.5342361 61.4530803 19.4951364L61.4530803 19.4951364 61.4530803 21.5244135C61.0386229 21.9623307 60.6143906 22.2888137 60.1803834 22.5038623 59.7463761 22.7189109 59.2322144 22.8264352 58.6378981 22.8264352zM72.3267213 24.6328438L77.1008011 12.5979401 74.8134656 12.5979401C74.6179668 12.5979401 74.4498379 12.6487698 74.3090788 12.7504291 74.1683197 12.8520885 74.0705703 12.9811177 74.0158306 13.1375167L74.0158306 13.1375167 71.6463857 19.5655159C71.5134465 19.9408735 71.4000572 20.3084112 71.3062178 20.6681289 71.2123784 21.0278467 71.126359 21.3875644 71.0481595 21.7472821 70.9777799 21.3875644 70.8956704 21.0278467 70.801831 20.6681289 70.7079916 20.3084112 70.5985123 19.9408735 70.4733931 19.5655159L70.4733931 19.5655159 68.1508678 13.1375167C68.1039481 12.9811177 68.0081537 12.8520885 67.8634846 12.7504291 67.7188156 12.6487698 67.5370017 12.5979401 67.3180431 12.5979401L67.3180431 12.5979401 64.9251383 12.5979401 69.699218 24.6328438 72.3267213 24.6328438zM81.5816327 28.5623689C81.8631509 28.5623689 82.0723345 28.5095842 82.2091837 28.4040149 82.3460328 28.2984455 82.4574671 28.1440015 82.5434866 27.9406828L82.5434866 27.9406828 89.100515 12.5979401 86.7779897 12.5979401C86.5981308 12.5979401 86.4358669 12.6487698 86.2911978 12.7504291 86.1465287 12.8520885 86.0429144 12.9811177 85.9803548 13.1375167L85.9803548 13.1375167 83.5639901 19.3661072C83.4779706 19.5772459 83.3997711 19.7903395 83.3293916 20.0053881 83.259012 20.2204368 83.1886325 20.4374404 83.1182529 20.656399 83.0635133 20.4374404 83.0068186 20.2223918 82.948169 20.0112531 82.8895194 19.8001144 82.8171848 19.5889758 82.7311654 19.3778371L82.7311654 19.3778371 80.1740416 13.1375167C80.111482 12.9967576 80.0156876 12.8716384 79.8866584 12.7621591 79.7576292 12.6526798 79.5797253 12.5979401 79.3529468 12.5979401L79.3529468 12.5979401 76.8075529 12.5979401 81.6754721 23.7296395 79.4233263 28.5623689 81.5816327 28.5623689zM101.639805 24.6328438C102.930097 24.6328438 104.10309 24.4256151 105.158783 24.0111577 106.214476 23.5967004 107.117681 23.0141141 107.868396 22.2633988 108.619111 21.5126836 109.201698 20.6172993 109.616155 19.5772459 110.030612 18.5371924 110.237841 17.3954797 110.237841 16.1521076 110.237841 14.9087355 110.030612 13.7670227 109.616155 12.7269693 109.201698 11.6869159 108.619111 10.7934866 107.868396 10.0466813 107.117681 9.29987603 106.214476 8.71728972 105.158783 8.29892237 104.10309 7.88055503 102.930097 7.67137135 101.639805 7.67137135L101.639805 7.67137135 95.1766164 7.67137135 95.1766164 24.6328438 101.639805 24.6328438zM101.639805 22.1226397L98.3436964 22.1226397 98.3436964 10.1815754 101.639805 10.1815754C102.46872 10.1815754 103.21357 10.3184246 103.874356 10.5921228 104.535142 10.8658211 105.098179 11.2587736 105.563466 11.7709804 106.028753 12.2831871 106.38456 12.9087831 106.630889 13.6477685 106.877217 14.3867538 107.000381 15.2215335 107.000381 16.1521076 107.000381 17.0826817 106.877217 17.9174614 106.630889 18.6564467 106.38456 19.395432 106.028753 20.021028 105.563466 20.5332348 105.098179 21.0454415 104.535142 21.438394 103.874356 21.7120923 103.21357 21.9857906 102.46872 22.1226397 101.639805 22.1226397L101.639805 22.1226397zM113.416651 10.9088308C113.674709 10.9088308 113.917128 10.8599561 114.143906 10.7622068 114.370685 10.6644574 114.568138 10.5334732 114.736267 10.3692542 114.904396 10.2050353 115.03929 10.0134465 115.14095 9.79448789 115.242609 9.57552928 115.293439 9.34093076 115.293439 9.09069235 115.293439 8.83263399 115.242609 8.59021553 115.14095 8.36343696 115.03929 8.1366584 114.904396 7.94115964 114.736267 7.77694068 114.568138 7.61272172 114.370685 7.48173755 114.143906 7.38398817 113.917128 7.28623879 113.674709 7.2373641 113.416651 7.2373641 113.166412 7.2373641 112.929859 7.28623879 112.70699 7.38398817 112.484122 7.48173755 112.290578 7.61272172 112.126359 7.77694068 111.96214 7.94115964 111.831156 8.1366584 111.733406 8.36343696 111.635657 8.59021553 111.586782 8.83263399 111.586782 9.09069235 111.586782 9.34093076 111.635657 9.57552928 111.733406 9.79448789 111.831156 10.0134465 111.96214 10.2050353 112.126359 10.3692542 112.290578 10.5334732 112.484122 10.6644574 112.70699 10.7622068 112.929859 10.8599561 113.166412 10.9088308 113.416651 10.9088308zM114.894621 24.6328438L114.894621 12.5979401 111.9856 12.5979401 111.9856 24.6328438 114.894621 24.6328438zM121.897387 28.8673469C122.820141 28.8673469 123.643191 28.7480927 124.366536 28.5095842 125.089882 28.2710757 125.699838 27.9563227 126.196405 27.5653252 126.692972 27.1743277 127.072239 26.7285905 127.334208 26.2281137 127.596176 25.7276368 127.72716 25.2115201 127.72716 24.6797635 127.72716 24.1089071 127.615726 23.6416651 127.392857 23.2780374 127.169989 22.9144097 126.874785 22.6270265 126.507248 22.4158879 126.13971 22.2047492 125.721343 22.0503052 125.252146 21.9525558 124.782949 21.8548064 124.302022 21.7863818 123.809365 21.7472821 123.316708 21.7081823 122.835781 21.6827675 122.366584 21.6710376 121.897387 21.6593076 121.47902 21.6299828 121.111482 21.5830631 120.743944 21.5361434 120.448741 21.4559889 120.225873 21.3425997 120.003004 21.2292104 119.89157 21.0513065 119.89157 20.808888 119.89157 20.5273698 120.079249 20.2732214 120.454606 20.0464429 120.665745 20.0855426 120.880793 20.1168224 121.099752 20.1402823 121.318711 20.1637421 121.545489 20.1754721 121.780088 20.1754721 122.444784 20.1754721 123.064515 20.0835876 123.639281 19.8998188 124.214047 19.71605 124.712569 19.4560366 125.134846 19.1197788 125.557124 18.7835209 125.887517 18.3749285 126.126025 17.8940015 126.364534 17.4130746 126.483788 16.875453 126.483788 16.2811368 126.483788 15.7884799 126.401678 15.3349228 126.237459 14.9204654L126.237459 14.9204654 127.316613 14.7210566C127.73107 14.6428571 127.938299 14.4317185 127.938299 14.0876407L127.938299 14.0876407 127.938299 13.0084875 124.477971 13.0084875C124.102613 12.8051688 123.688156 12.6507248 123.234599 12.5451554 122.781041 12.4395861 122.296204 12.3868014 121.780088 12.3868014 121.091932 12.3868014 120.456561 12.4767309 119.873975 12.6565897 119.291389 12.8364486 118.787002 13.0964619 118.360814 13.4366298 117.934627 13.7767976 117.602279 14.187345 117.363771 14.668272 117.125262 15.1491989 117.006008 15.6868205 117.006008 16.2811368 117.006008 17.0162121 117.180002 17.657448 117.52799 18.2048446 117.875977 18.7522411 118.354949 19.1901583 118.964906 19.5185962 118.699027 19.6515354 118.468339 19.8020694 118.27284 19.9701984 118.077341 20.1383273 117.915077 20.3162312 117.786048 20.50391 117.657019 20.6915888 117.55927 20.8812226 117.4928 21.0728114 117.42633 21.2644002 117.393096 21.450124 117.393096 21.6299828 117.393096 22.07572 117.486935 22.4354377 117.674614 22.709136 117.862293 22.9828343 118.116441 23.2017929 118.437059 23.3660118 117.842743 23.5927904 117.375501 23.8958135 117.035333 24.2750811 116.695165 24.6543487 116.525081 25.1255007 116.525081 25.6885371 116.525081 26.1029945 116.63456 26.5018119 116.853519 26.8849895 117.072478 27.2681671 117.404825 27.6063799 117.850563 27.8996281 118.2963 28.1928762 118.855426 28.4274747 119.527942 28.6034236 120.200458 28.7793725 120.990273 28.8673469 121.897387 28.8673469zM121.780088 18.3221438C121.42819 18.3221438 121.117347 18.2732691 120.847559 18.1755197 120.57777 18.0777704 120.354902 17.9409212 120.178953 17.7649723 120.003004 17.5890235 119.870065 17.3798398 119.780135 17.1374213 119.690206 16.8950029 119.645241 16.6330345 119.645241 16.3515163 119.645241 15.7572001 119.823145 15.2860481 120.178953 14.9380603 120.534761 14.5900725 121.068472 14.4160786 121.780088 14.4160786 122.491703 14.4160786 123.025415 14.5900725 123.381223 14.9380603 123.73703 15.2860481 123.914934 15.7572001 123.914934 16.3515163 123.914934 16.6408545 123.869969 16.9067328 123.78004 17.1491512 123.690111 17.3915697 123.557171 17.5987984 123.381223 17.7708373 123.205274 17.9428762 122.98436 18.0777704 122.718482 18.1755197 122.452603 18.2732691 122.139805 18.3221438 121.780088 18.3221438zM121.956037 26.80288C121.42428 26.80288 120.974633 26.7657353 120.607095 26.6914457 120.239558 26.6171562 119.940444 26.5135419 119.709756 26.3806027 119.479067 26.2476636 119.310938 26.0893096 119.205369 25.9055407 119.0998 25.7217719 119.047015 25.5243181 119.047015 25.3131795 119.047015 24.9925615 119.146719 24.7110433 119.346128 24.4686248 119.545537 24.2262064 119.80555 24.0150677 120.126168 23.8352088 120.493706 23.8821286 120.871019 23.9134084 121.258106 23.9290483 121.645194 23.9446882 122.020551 23.962283 122.384179 23.9818329 122.747807 24.0013828 123.091884 24.0307076 123.416412 24.0698074 123.74094 24.1089071 124.024414 24.1695117 124.266832 24.2516212 124.50925 24.3337307 124.700839 24.449075 124.841598 24.597654 124.982357 24.7462331 125.052737 24.9378219 125.052737 25.1724204 125.052737 25.4070189 124.994087 25.6240225 124.876788 25.8234312 124.759489 26.02284 124.573765 26.1948789 124.319617 26.339548 124.065468 26.4842171 123.742895 26.5976063 123.351898 26.6797158 122.9609 26.7618253 122.495613 26.80288 121.956037 26.80288zM130.82386 10.9088308C131.081919 10.9088308 131.324337 10.8599561 131.551116 10.7622068 131.777894 10.6644574 131.975348 10.5334732 132.143477 10.3692542 132.311606 10.2050353 132.4465 10.0134465 132.548159 9.79448789 132.649819 9.57552928 132.700648 9.34093076 132.700648 9.09069235 132.700648 8.83263399 132.649819 8.59021553 132.548159 8.36343696 132.4465 8.1366584 132.311606 7.94115964 132.143477 7.77694068 131.975348 7.61272172 131.777894 7.48173755 131.551116 7.38398817 131.324337 7.28623879 131.081919 7.2373641 130.82386 7.2373641 130.573622 7.2373641 130.337068 7.28623879 130.1142 7.38398817 129.891331 7.48173755 129.697788 7.61272172 129.533569 7.77694068 129.36935 7.94115964 129.238365 8.1366584 129.140616 8.36343696 129.042867 8.59021553 128.993992 8.83263399 128.993992 9.09069235 128.993992 9.34093076 129.042867 9.57552928 129.140616 9.79448789 129.238365 10.0134465 129.36935 10.2050353 129.533569 10.3692542 129.697788 10.5334732 129.891331 10.6644574 130.1142 10.7622068 130.337068 10.8599561 130.573622 10.9088308 130.82386 10.9088308zM132.301831 24.6328438L132.301831 12.5979401 129.392809 12.5979401 129.392809 24.6328438 132.301831 24.6328438zM138.80021 24.8205226C139.386706 24.8205226 139.953652 24.7305932 140.501049 24.5507343 141.048446 24.3708755 141.533282 24.1049971 141.95556 23.7530994L141.95556 23.7530994 141.087545 22.3455083C141.024986 22.2594888 140.966336 22.1949743 140.911596 22.1519645 140.856857 22.1089548 140.786477 22.0874499 140.700458 22.0874499 140.630078 22.0874499 140.559699 22.1089548 140.489319 22.1519645 140.41894 22.1949743 140.338785 22.239939 140.248856 22.2868587 140.158926 22.3337784 140.053357 22.3787431 139.932148 22.4217528 139.810938 22.4647625 139.660404 22.4862674 139.480545 22.4862674 139.159928 22.4862674 138.907734 22.3806981 138.723965 22.1695594 138.540196 21.9584208 138.448312 21.6651726 138.448312 21.289815L138.448312 21.289815 138.448312 14.7679763 141.662312 14.7679763 141.662312 12.7035094 138.448312 12.7035094 138.448312 8.91474347 136.946882 8.91474347C136.774843 8.91474347 136.634084 8.95775319 136.524604 9.04377265 136.415125 9.1297921 136.340835 9.25100134 136.301736 9.40740034L136.301736 9.40740034 135.69178 12.6917795 133.756342 13.0084875 133.756342 14.1580202C133.756342 14.3613389 133.811081 14.513828 133.920561 14.6154873 134.03004 14.7171467 134.162979 14.7679763 134.319378 14.7679763L134.319378 14.7679763 135.55102 14.7679763 135.55102 21.4892237C135.55102 22.5292771 135.830584 23.344507 136.38971 23.9349132 136.948837 24.5253195 137.752336 24.8205226 138.80021 24.8205226zM145.697406 24.8205226C146.127503 24.8205226 146.520456 24.7833778 146.876264 24.7090883 147.232071 24.6347988 147.566374 24.5272745 147.879172 24.3865154 148.19197 24.2457562 148.493038 24.0717623 148.782377 23.8645337 149.071715 23.657305 149.368873 23.4168415 149.673851 23.1431432L149.673851 23.1431432 149.931909 24.0111577C150.017929 24.2613961 150.135228 24.4275701 150.283807 24.5096796 150.432386 24.5917891 150.643525 24.6328438 150.917223 24.6328438L150.917223 24.6328438 152.230975 24.6328438 152.230975 17.031852C152.230975 16.3515163 152.13127 15.7259203 151.931862 15.1550639 151.732453 14.5842075 151.44116 14.0935056 151.057982 13.6829582 150.674805 13.2724108 150.205607 12.9517929 149.650391 12.7211043 149.095175 12.4904158 148.465669 12.3750715 147.761873 12.3750715 145.814705 12.3750715 144.149056 13.0084875 142.764925 14.2753195L142.764925 14.2753195 143.281041 15.2019836C143.367061 15.3427427 143.48045 15.4659069 143.621209 15.5714763 143.761968 15.6770456 143.934007 15.7298302 144.137326 15.7298302 144.371924 15.7298302 144.585018 15.6750906 144.776607 15.5656113 144.968196 15.456132 145.181289 15.3329678 145.415888 15.1961186 145.650486 15.0592695 145.92223 14.9361053 146.231118 14.826626 146.540006 14.7171467 146.929048 14.662407 147.398245 14.662407 148.047301 14.662407 148.543868 14.8559508 148.887946 15.2430383 149.232024 15.6301259 149.404063 16.2263971 149.404063 17.031852L149.404063 17.031852 149.404063 17.7356475C148.489128 17.7591074 147.675854 17.8275319 146.964238 17.9409212 146.252623 18.0543105 145.628981 18.2009346 145.093315 18.3807934 144.557648 18.5606523 144.106046 18.771791 143.738508 19.0142094 143.370971 19.2566279 143.071858 19.5146862 142.841169 19.7883845 142.610481 20.0620828 142.444307 20.349466 142.342647 20.650534 142.240988 20.9516021 142.190158 21.2546252 142.190158 21.5596033 142.190158 22.0991799 142.276178 22.5722869 142.448217 22.9789243 142.620256 23.3855617 142.862674 23.7257295 143.175472 23.9994278 143.48827 24.2731261 143.859718 24.4783998 144.289815 24.6152489 144.719912 24.752098 145.189109 24.8205226 145.697406 24.8205226zM146.58888 22.8264352C146.104043 22.8264352 145.711091 22.7169559 145.410023 22.4979973 145.108955 22.2790387 144.958421 21.915411 144.958421 21.4071142 144.958421 21.1490559 145.03271 20.9105474 145.181289 20.6915888 145.329868 20.4726302 145.576197 20.2810414 145.920275 20.1168224 146.264352 19.9526035 146.72182 19.8177093 147.292676 19.71214 147.863532 19.6065707 148.567328 19.5342361 149.404063 19.4951364L149.404063 19.4951364 149.404063 21.5244135C148.989605 21.9623307 148.565373 22.2888137 148.131366 22.5038623 147.697358 22.7189109 147.183197 22.8264352 146.58888 22.8264352zM157.415602 24.6328438L157.415602 7.20217433 154.51831 7.20217433 154.51831 24.6328438 157.415602 24.6328438zM169.767213 24.8205226C170.705607 24.8205226 171.538432 24.6778085 172.265688 24.3923803 172.992943 24.1069521 173.608764 23.7159546 174.113151 23.2193878 174.617538 22.7228209 175.000715 22.1402346 175.262684 21.4716288 175.524652 20.8030231 175.655636 20.0855426 175.655636 19.3191875 175.655636 18.615392 175.544202 18.0171657 175.321333 17.5245089 175.098465 17.031852 174.803261 16.6154396 174.435724 16.2752718 174.068186 15.9351039 173.649819 15.6535857 173.180622 15.4307171 172.711425 15.2078486 172.230498 15.0123498 171.737841 14.8442209 171.245184 14.6760919 170.764257 14.5177379 170.29506 14.3691589 169.825863 14.2205798 169.407496 14.0524509 169.039958 13.8647721 168.67242 13.6770933 168.377217 13.4503147 168.154349 13.1844364 167.93148 12.9185581 167.820046 12.5862102 167.820046 12.1873927 167.820046 11.8745947 167.874785 11.5872115 167.984265 11.3252432 168.093744 11.0632748 168.259918 10.8384513 168.482787 10.6507725 168.705655 10.4630936 168.981308 10.3164696 169.309746 10.2109002 169.638184 10.1053309 170.021362 10.0525463 170.459279 10.0525463 170.944116 10.0525463 171.364438 10.1131509 171.720246 10.2343601 172.076054 10.3555693 172.386897 10.4904635 172.652775 10.6390425 172.918653 10.7876216 173.147387 10.9225157 173.338976 11.043725 173.530565 11.1649342 173.708468 11.2255388 173.872687 11.2255388 174.029086 11.2255388 174.160071 11.188394 174.26564 11.1141045 174.371209 11.039815 174.470914 10.9205607 174.564753 10.7563418L174.564753 10.7563418 175.350658 9.26664124C174.756342 8.70360481 174.036906 8.26568758 173.192352 7.95288957 172.347797 7.64009155 171.425043 7.48369254 170.424089 7.48369254 169.532615 7.48369254 168.7428 7.62054167 168.054644 7.89423994 167.366489 8.1679382 166.787812 8.5315659 166.318615 8.98512302 165.849418 9.43868014 165.491656 9.95870685 165.245327 10.5452031 164.998999 11.1316994 164.875834 11.7338356 164.875834 12.3516117 164.875834 13.1257868 164.987269 13.7767976 165.210137 14.3046443 165.433006 14.8324909 165.728209 15.2723632 166.095747 15.6242609 166.463284 15.9761587 166.881652 16.2615869 167.350849 16.4805455 167.820046 16.6995041 168.297063 16.8871829 168.7819 17.0435819 169.266737 17.1999809 169.743754 17.34465 170.212951 17.4775892 170.682148 17.6105283 171.100515 17.7727923 171.468053 17.9643811 171.83559 18.1559699 172.130793 18.3925234 172.353662 18.6740416 172.576531 18.9555598 172.687965 19.3191875 172.687965 19.7649247 172.687965 20.5625596 172.441636 21.1744707 171.94898 21.600658 171.456323 22.0268453 170.760347 22.239939 169.861053 22.239939 169.274557 22.239939 168.772125 22.1597845 168.353757 21.9994755 167.93539 21.8391665 167.569807 21.6612626 167.257009 21.4657639 166.944211 21.2702651 166.674423 21.0923612 166.447644 20.9320523 166.220866 20.7717433 166.009727 20.6915888 165.814228 20.6915888 165.673469 20.6915888 165.54053 20.7287335 165.415411 20.8030231 165.290292 20.8773126 165.188632 20.969197 165.110433 21.0786763L165.110433 21.0786763 164.183769 22.5918367C164.512207 22.9280946 164.887564 23.2330727 165.309842 23.5067709 165.732119 23.7804692 166.183721 24.0150677 166.664648 24.2105665 167.145575 24.4060652 167.648007 24.5565993 168.171944 24.6621686 168.69588 24.7677379 169.227637 24.8205226 169.767213 24.8205226zM182.705321 24.8087927C183.127599 24.8087927 183.563561 24.7775129 184.013208 24.7149533 184.462855 24.6523937 184.904682 24.5448693 185.33869 24.3923803 185.772697 24.2398913 186.189109 24.0365726 186.587927 23.7824242 186.986744 23.5282758 187.346462 23.2135228 187.66708 22.8381652L187.66708 22.8381652 186.834255 21.7824719C186.716956 21.602613 186.537097 21.5126836 186.294679 21.5126836 186.11482 21.5126836 185.929096 21.5674232 185.737507 21.6769025 185.545918 21.7863818 185.32305 21.9075911 185.068901 22.0405302 184.814753 22.1734694 184.517595 22.2946786 184.177427 22.4041579 183.837259 22.5136372 183.432577 22.5683769 182.96338 22.5683769 182.494183 22.5683769 182.06604 22.4960423 181.678953 22.3513733 181.291865 22.2067042 180.957562 21.9877456 180.676044 21.6944974 180.394526 21.4012493 180.167747 21.0298016 179.995709 20.5801545 179.82367 20.1305073 179.71419 19.5967957 179.667271 18.9790196L179.667271 18.9790196 187.115773 18.9790196C187.381652 18.9790196 187.561511 18.9027751 187.65535 18.7502861 187.749189 18.5977971 187.796109 18.3025939 187.796109 17.8646767 187.796109 16.9966622 187.665125 16.2244421 187.403157 15.5480164 187.141188 14.8715907 186.779516 14.3007343 186.318138 13.8354473 185.856761 13.3701602 185.305455 13.0163075 184.664219 12.773889 184.022983 12.5314705 183.323097 12.4102613 182.564562 12.4102613 181.665268 12.4102613 180.857858 12.5666603 180.142333 12.8794583 179.426807 13.1922563 178.820761 13.6164887 178.324194 14.1521553 177.827627 14.6878219 177.446405 15.3173279 177.180526 16.0406733 176.914648 16.7640187 176.781709 17.5362388 176.781709 18.3573336 176.781709 19.4130269 176.934198 20.341646 177.239176 21.1431909 177.544154 21.9447358 177.962521 22.6172516 178.494278 23.1607381 179.026035 23.7042247 179.651631 24.1147721 180.371066 24.3923803 181.090502 24.6699886 181.868587 24.8087927 182.705321 24.8087927zM185.192066 17.2312607L179.72592 17.2312607C179.858859 16.3554263 180.165792 15.6790006 180.646719 15.2019836 181.127646 14.7249666 181.786477 14.4864581 182.623212 14.4864581 183.053309 14.4864581 183.430622 14.5587927 183.75515 14.7034618 184.079678 14.8481308 184.347511 15.0455846 184.55865 15.295823 184.769788 15.5460614 184.928142 15.8373546 185.033712 16.1697025 185.139281 16.5020504 185.192066 16.8559031 185.192066 17.2312607L185.192066 17.2312607zM192.39424 24.6328438L192.39424 17.2195308C192.527179 16.8989128 192.669893 16.6134846 192.822382 16.3632462 192.974871 16.1130078 193.15082 15.8999142 193.350229 15.7239653 193.549638 15.5480164 193.774461 15.4131223 194.0247 15.3192829 194.274938 15.2254434 194.560366 15.1785237 194.880984 15.1785237 195.099943 15.1785237 195.324766 15.1980736 195.555455 15.2371734 195.786143 15.2762731 195.960137 15.295823 196.077437 15.295823 196.202556 15.295823 196.30226 15.2664982 196.37655 15.2078486 196.450839 15.1491989 196.507534 15.0494946 196.546634 14.9087355L196.546634 14.9087355 196.734312 12.7386992C196.398055 12.4962808 195.952317 12.3750715 195.397101 12.3750715 194.693305 12.3750715 194.083349 12.5803452 193.567233 12.9908926 193.051116 13.40144 192.605379 13.9664314 192.230021 14.6858669L192.230021 14.6858669 192.054072 13.3251955C192.014972 13.0514972 191.936773 12.8618634 191.819474 12.7562941 191.702174 12.6507248 191.494946 12.5979401 191.197788 12.5979401L191.197788 12.5979401 189.496948 12.5979401 189.496948 24.6328438 192.39424 24.6328438zM203.854377 24.6328438L208.628457 12.5979401 206.341121 12.5979401C206.145623 12.5979401 205.977494 12.6487698 205.836735 12.7504291 205.695976 12.8520885 205.598226 12.9811177 205.543487 13.1375167L205.543487 13.1375167 203.174042 19.5655159C203.041102 19.9408735 202.927713 20.3084112 202.833874 20.6681289 202.740034 21.0278467 202.654015 21.3875644 202.575815 21.7472821 202.505436 21.3875644 202.423326 21.0278467 202.329487 20.6681289 202.235648 20.3084112 202.126168 19.9408735 202.001049 19.5655159L202.001049 19.5655159 199.678524 13.1375167C199.631604 12.9811177 199.53581 12.8520885 199.391141 12.7504291 199.246471 12.6487698 199.064658 12.5979401 198.845699 12.5979401L198.845699 12.5979401 196.452794 12.5979401 201.226874 24.6328438 203.854377 24.6328438zM211.220771 10.9088308C211.478829 10.9088308 211.721247 10.8599561 211.948026 10.7622068 212.174805 10.6644574 212.372258 10.5334732 212.540387 10.3692542 212.708516 10.2050353 212.84341 10.0134465 212.94507 9.79448789 213.046729 9.57552928 213.097559 9.34093076 213.097559 9.09069235 213.097559 8.83263399 213.046729 8.59021553 212.94507 8.36343696 212.84341 8.1366584 212.708516 7.94115964 212.540387 7.77694068 212.372258 7.61272172 212.174805 7.48173755 211.948026 7.38398817 211.721247 7.28623879 211.478829 7.2373641 211.220771 7.2373641 210.970532 7.2373641 210.733979 7.28623879 210.51111 7.38398817 210.288241 7.48173755 210.094698 7.61272172 209.930479 7.77694068 209.76626 7.94115964 209.635276 8.1366584 209.537526 8.36343696 209.439777 8.59021553 209.390902 8.83263399 209.390902 9.09069235 209.390902 9.34093076 209.439777 9.57552928 209.537526 9.79448789 209.635276 10.0134465 209.76626 10.2050353 209.930479 10.3692542 210.094698 10.5334732 210.288241 10.6644574 210.51111 10.7622068 210.733979 10.8599561 210.970532 10.9088308 211.220771 10.9088308zM212.698741 24.6328438L212.698741 12.5979401 209.78972 12.5979401 209.78972 24.6328438 212.698741 24.6328438zM219.959565 24.8087927C220.381842 24.8087927 220.806075 24.7775129 221.232262 24.7149533 221.658449 24.6523937 222.072907 24.5448693 222.475634 24.3923803 222.878362 24.2398913 223.267404 24.0365726 223.642762 23.7824242 224.018119 23.5282758 224.366107 23.2135228 224.686725 22.8381652L224.686725 22.8381652 223.8539 21.7824719C223.736601 21.602613 223.560652 21.5126836 223.326054 21.5126836 223.146195 21.5126836 222.983931 21.5693782 222.839262 21.6827675 222.694593 21.7961568 222.524509 21.921276 222.32901 22.0581251 222.133511 22.1949743 221.893048 22.3200935 221.60762 22.4334827 221.322191 22.546872 220.948789 22.6035667 220.487412 22.6035667 220.026035 22.6035667 219.611577 22.5155922 219.24404 22.3396433 218.876502 22.1636944 218.563704 21.9056361 218.305646 21.5654682 218.047587 21.2253004 217.850134 20.8049781 217.713284 20.3045012 217.576435 19.8040244 217.508011 19.233168 217.508011 18.5919321 217.508011 17.974156 217.57057 17.4208945 217.695689 16.9321476 217.820809 16.4434007 218.010442 16.0269884 218.264591 15.6829105 218.518739 15.3388327 218.837402 15.0749094 219.22058 14.8911406 219.603757 14.7073717 220.049495 14.6154873 220.557791 14.6154873 220.956609 14.6154873 221.290912 14.660452 221.5607 14.7503815 221.830488 14.8403109 222.063132 14.9419702 222.258631 15.0553595 222.454129 15.1687488 222.622258 15.2704082 222.763017 15.3603376 222.903776 15.450267 223.048446 15.4952317 223.197025 15.4952317 223.353424 15.4952317 223.472678 15.4639519 223.554787 15.4013923 223.636897 15.3388327 223.720961 15.2528133 223.806981 15.143334L223.806981 15.143334 224.569426 14.0876407C224.029849 13.5480641 223.421848 13.1336067 222.745422 12.8442685 222.068997 12.5549304 221.281137 12.4102613 220.381842 12.4102613 219.435628 12.4102613 218.598894 12.5666603 217.871638 12.8794583 217.144383 13.1922563 216.534427 13.6243086 216.04177 14.1756151 215.549113 14.7269216 215.17571 15.3798875 214.921562 16.1345127 214.667414 16.8891379 214.54034 17.7082777 214.54034 18.5919321 214.54034 19.5772459 214.683054 20.4550353 214.968482 21.2253004 215.25391 21.9955655 215.642953 22.6465764 216.135609 23.178333 216.628266 23.7100896 217.203033 24.1147721 217.859908 24.3923803 218.516784 24.6699886 219.21667 24.8087927 219.959565 24.8087927zM231.079535 24.8087927C231.501812 24.8087927 231.937774 24.7775129 232.387421 24.7149533 232.837068 24.6523937 233.278896 24.5448693 233.712903 24.3923803 234.14691 24.2398913 234.563323 24.0365726 234.96214 23.7824242 235.360957 23.5282758 235.720675 23.2135228 236.041293 22.8381652L236.041293 22.8381652 235.208468 21.7824719C235.091169 21.602613 234.91131 21.5126836 234.668892 21.5126836 234.489033 21.5126836 234.303309 21.5674232 234.11172 21.6769025 233.920132 21.7863818 233.697263 21.9075911 233.443115 22.0405302 233.188966 22.1734694 232.891808 22.2946786 232.55164 22.4041579 232.211472 22.5136372 231.80679 22.5683769 231.337593 22.5683769 230.868396 22.5683769 230.440254 22.4960423 230.053166 22.3513733 229.666079 22.2067042 229.331776 21.9877456 229.050257 21.6944974 228.768739 21.4012493 228.541961 21.0298016 228.369922 20.5801545 228.197883 20.1305073 228.088404 19.5967957 228.041484 18.9790196L228.041484 18.9790196 235.489987 18.9790196C235.755865 18.9790196 235.935724 18.9027751 236.029563 18.7502861 236.123403 18.5977971 236.170322 18.3025939 236.170322 17.8646767 236.170322 16.9966622 236.039338 16.2244421 235.77737 15.5480164 235.515401 14.8715907 235.153729 14.3007343 234.692352 13.8354473 234.230975 13.3701602 233.679668 13.0163075 233.038432 12.773889 232.397196 12.5314705 231.697311 12.4102613 230.938776 12.4102613 230.039481 12.4102613 229.232071 12.5666603 228.516546 12.8794583 227.80102 13.1922563 227.194974 13.6164887 226.698407 14.1521553 226.201841 14.6878219 225.820618 15.3173279 225.55474 16.0406733 225.288861 16.7640187 225.155922 17.5362388 225.155922 18.3573336 225.155922 19.4130269 225.308411 20.341646 225.613389 21.1431909 225.918367 21.9447358 226.336735 22.6172516 226.868491 23.1607381 227.400248 23.7042247 228.025844 24.1147721 228.745279 24.3923803 229.464715 24.6699886 230.2428 24.8087927 231.079535 24.8087927zM233.566279 17.2312607L228.100134 17.2312607C228.233073 16.3554263 228.540006 15.6790006 229.020933 15.2019836 229.50186 14.7249666 230.16069 14.4864581 230.997425 14.4864581 231.427522 14.4864581 231.804835 14.5587927 232.129363 14.7034618 232.453891 14.8481308 232.721724 15.0455846 232.932863 15.295823 233.144002 15.5460614 233.302356 15.8373546 233.407925 16.1697025 233.513494 16.5020504 233.566279 16.8559031 233.566279 17.2312607L233.566279 17.2312607zM241.19073 24.8205226C241.972726 24.8205226 242.662836 24.7208182 243.261062 24.5214095 243.859289 24.3220008 244.36172 24.0443925 244.768358 23.6885848 245.174995 23.332777 245.481928 22.9104997 245.689157 22.4217528 245.896386 21.9330059 246 21.3992943 246 20.820618 246 20.335781 245.915936 19.9213237 245.747807 19.5772459 245.579678 19.233168 245.356809 18.9379649 245.079201 18.6916365 244.801593 18.445308 244.48684 18.2419893 244.134942 18.0816803 243.783044 17.9213714 243.425281 17.7786573 243.061654 17.6535381 242.698026 17.5284188 242.340263 17.4130746 241.988365 17.3075052 241.636468 17.2019359 241.321715 17.0826817 241.044106 16.9497425 240.766498 16.8168034 240.54363 16.6623593 240.375501 16.4864105 240.207372 16.3104616 240.123307 16.0934579 240.123307 15.8353996 240.123307 15.4444021 240.285571 15.1276941 240.610099 14.8852756 240.934627 14.6428571 241.382319 14.5216479 241.953176 14.5216479 242.320713 14.5216479 242.639376 14.5607477 242.909165 14.6389472 243.178953 14.7171467 243.419416 14.8051211 243.630555 14.9028705 243.841694 15.0006199 244.027418 15.0885943 244.187726 15.1667938 244.348035 15.2449933 244.49857 15.2840931 244.639329 15.2840931 244.772268 15.2840931 244.881747 15.2586782 244.967767 15.2078486 245.053786 15.1570189 245.135895 15.0690444 245.214095 14.9439252L245.214095 14.9439252 245.870971 13.8999619C245.417414 13.4542247 244.850467 13.094507 244.170132 12.8208087 243.489796 12.5471104 242.735171 12.4102613 241.906256 12.4102613 241.163361 12.4102613 240.50844 12.5099657 239.941493 12.7093744 239.374547 12.9087831 238.90144 13.1746615 238.522172 13.5070093 238.142905 13.8393572 237.855522 14.2283998 237.660023 14.6741369 237.464524 15.1198741 237.366775 15.5890711 237.366775 16.081728 237.366775 16.6134846 237.450839 17.0670418 237.618968 17.4423994 237.787097 17.817757 238.009966 18.134465 238.287574 18.3925234 238.565182 18.6505817 238.88189 18.8636754 239.237698 19.0318043 239.593506 19.1999332 239.957133 19.3465573 240.328581 19.4716765 240.700029 19.5967957 241.063656 19.71214 241.419464 19.8177093 241.775272 19.9232787 242.09198 20.0425329 242.369588 20.1754721 242.647196 20.3084112 242.870065 20.4648102 243.038194 20.6446691 243.206323 20.8245279 243.290387 21.0552165 243.290387 21.3367347 243.290387 21.5244135 243.253242 21.7062274 243.178953 21.8821762 243.104663 22.0581251 242.987364 22.2125691 242.827055 22.3455083 242.666746 22.4784475 242.463427 22.5859718 242.217099 22.6680813 241.970771 22.7501907 241.675567 22.7912455 241.33149 22.7912455 240.893572 22.7912455 240.5319 22.7404158 240.246471 22.6387564 239.961043 22.5370971 239.71276 22.4276178 239.501621 22.3103185 239.290483 22.1930193 239.104759 22.08354 238.94445 21.9818806 238.784141 21.8802212 238.614057 21.8293916 238.434198 21.8293916 238.254339 21.8293916 238.10576 21.8645813 237.988461 21.9349609 237.871162 22.0053405 237.769502 22.1069998 237.683483 22.239939L237.683483 22.239939 237.014877 23.342552C237.249475 23.5536906 237.521219 23.7491894 237.830107 23.9290483 238.138995 24.1089071 238.475253 24.2653061 238.83888 24.3982453 239.202508 24.5311844 239.581776 24.6347988 239.976683 24.7090883 240.371591 24.7833778 240.776273 24.8205226 241.19073 24.8205226z"/>
  </g>
</svg>
