<?xml version="1.0" encoding="UTF-8"?>
<svg width="31px" height="50px" viewBox="0 0 31 50" version="1.1" xmlns="http://www.w3.org/2000/svg" xmlns:xlink="http://www.w3.org/1999/xlink">
    <title>NavyDigital.Dark.Brand</title>
    <g id="Homepage" stroke="none" stroke-width="1" fill="none" fill-rule="evenodd">
        <g id="11″-iPad-Pro-Landscape" transform="translate(-581.000000, -241.000000)" fill-rule="nonzero">
            <g id="Logomark" transform="translate(581.000000, 241.000000)">
                <path d="M7.48971,36.1303987 L13.8543075,42.4949962 L6.6941353,49.6551683 C6.25475153,50.094552 5.5423697,50.094552 5.10298594,49.6551683 L0.329537825,44.8817202 C-0.109845942,44.4423365 -0.109845942,43.7299547 0.329537825,43.2905709 L7.48971,36.1303987 Z M30.5613759,25.7879278 L23.4012037,32.9481 L17.0366062,26.5835025 L18.6277556,24.9923531 L0.329537825,6.6941353 C-0.109845942,6.25475153 -0.109845942,5.5423697 0.329537825,5.10298594 L5.10298594,0.329537825 C5.5423697,-0.109845942 6.25475153,-0.109845942 6.6941353,0.329537825 L30.5613759,24.1967784 C31.0007597,24.6361622 31.0007597,25.348544 30.5613759,25.7879278 Z" id="Arrow-Right" fill="#233645"></path>
                <path d="M25.7879278,0.329537825 L30.5613759,5.10298594 C31.0007597,5.5423697 31.0007597,6.25475153 30.5613759,6.6941353 L23.4012037,13.8543075 L17.0366062,7.48971 L24.1967784,0.329537825 C24.6361622,-0.109845942 25.348544,-0.109845942 25.7879278,0.329537825 Z M12.2631581,24.9923531 L30.5613759,43.2905709 C31.0007597,43.7299547 31.0007597,44.4423365 30.5613759,44.8817202 L25.7879278,49.6551683 C25.348544,50.094552 24.6361622,50.094552 24.1967784,49.6551683 L0.329537825,25.7879278 C-0.109845942,25.348544 -0.109845942,24.6361622 0.329537825,24.1967784 L7.48971,17.0366062 L13.8543075,23.4012037 L12.2631581,24.9923531 Z" id="Arrow-Left" fill="#D9445E"></path>
            </g>
        </g>
    </g>
</svg>
