<?xml version="1.0" encoding="UTF-8"?>
<svg width="37px" height="48px" viewBox="0 0 37 48" version="1.1" xmlns="http://www.w3.org/2000/svg" xmlns:xlink="http://www.w3.org/1999/xlink">
    <title>Group 8</title>
    <defs>
        <filter x="-0.5%" y="-6.2%" width="100.9%" height="112.4%" filterUnits="objectBoundingBox" id="filter-1">
            <feOffset dx="0" dy="2" in="SourceAlpha" result="shadowOffsetOuter1"></feOffset>
            <feGaussianBlur stdDeviation="2" in="shadowOffsetOuter1" result="shadowBlurOuter1"></feGaussianBlur>
            <feColorMatrix values="0 0 0 0 0   0 0 0 0 0   0 0 0 0 0  0 0 0 0.111512511 0" type="matrix" in="shadowBlurOuter1" result="shadowMatrixOuter1"></feColorMatrix>
            <feMerge>
                <feMergeNode in="shadowMatrixOuter1"></feMergeNode>
                <feMergeNode in="SourceGraphic"></feMergeNode>
            </feMerge>
        </filter>
    </defs>
    <g id="Desktop-Large" stroke="none" stroke-width="1" fill="none" fill-rule="evenodd">
        <g id="Colour-Copy-4" transform="translate(-391.000000, -135.000000)" fill-rule="nonzero">
            <g id="Group-13" filter="url(#filter-1)">
                <g id="Group-8" transform="translate(400.000000, 144.000000)">
                    <path d="M15.3400183,0.199579864 L18.1734966,3.0579132 C18.4378444,3.32457986 18.4378444,3.74957986 18.1734966,4.01624653 L13.9191487,8.31624653 L10.1356705,4.49124653 L14.3900183,0.199579864 C14.5156522,0.0718451633 14.6866437,0 14.8650183,0 C15.0433929,0 15.2143844,0.0718451633 15.3400183,0.199579864 Z M7.29393134,14.9912465 L18.1734966,25.9745799 C18.4378444,26.2412465 18.4378444,26.6662465 18.1734966,26.9245799 L15.3400183,29.7912465 C15.2143844,29.9189812 15.0433929,29.9908264 14.8650183,29.9908264 C14.6866437,29.9908264 14.5156522,29.9189812 14.3900183,29.7912465 L0.197844387,15.4745799 C0.0712204227,15.3478439 0,15.1753525 0,14.9954132 C0,14.8154739 0.0712204227,14.6429825 0.197844387,14.5162465 L4.45219221,10.2245799 L8.24393134,14.0412465 L7.29393134,14.9912465 Z" id="Shape" fill="#D9445E"></path>
                    <path d="M4.46045308,21.6745799 L8.24393134,25.4995799 L3.98132265,29.7912465 C3.85568874,29.9189812 3.68469728,29.9908264 3.50632265,29.9908264 C3.32794802,29.9908264 3.15695656,29.9189812 3.03132265,29.7912465 L0.197844387,26.9245799 C-0.0604457072,26.66151 -0.0604457072,26.2376497 0.197844387,25.9745799 L4.45219221,21.6662465 L4.46045308,21.6745799 Z M18.1734966,15.4745799 L13.9191487,19.7662465 L10.1356705,15.9495799 L11.0774096,14.9912465 L0.197844387,4.01624653 C0.0712204227,3.88951057 0,3.71701918 0,3.53707986 C0,3.35714055 0.0712204227,3.18464916 0.197844387,3.0579132 L3.03132265,0.199579864 C3.15695656,0.0718451633 3.32794802,0 3.50632265,0 C3.68469728,0 3.85568874,0.0718451633 3.98132265,0.199579864 L18.1734966,14.5162465 C18.4378444,14.7829132 18.4378444,15.2079132 18.1734966,15.4745799 Z" id="Shape" fill="#1C2D39"></path>
                </g>
            </g>
        </g>
    </g>
</svg>