<svg viewBox="0 0 400 653" xmlns="http://www.w3.org/2000/svg"><g fill-rule="nonzero" fill="none" opacity=".182"><path d="M333.991 4.345l61.692 62.234a14.765 14.765 0 010 20.865l-92.628 93.622-82.376-83.28 92.628-93.44A14.505 14.505 0 01323.65 0c3.884 0 7.607 1.564 10.342 4.345zM158.807 326.398l236.876 239.135c5.756 5.806 5.756 15.06 0 20.684l-61.692 62.414a14.505 14.505 0 01-10.342 4.346 14.505 14.505 0 01-10.342-4.346l-309-311.71A14.762 14.762 0 010 326.488c0-3.917 1.55-7.673 4.308-10.432l92.628-93.44 82.555 83.098-20.684 20.684z" fill="#748899"/><path d="M97.115 471.91l82.376 83.28-92.807 93.441a14.505 14.505 0 01-10.342 4.346A14.505 14.505 0 0166 648.63L4.308 586.217c-5.624-5.728-5.624-14.956 0-20.684l92.628-93.804.18.182zm298.568-134.989l-92.628 93.44-82.376-83.098 20.504-20.865L4.308 87.444A14.762 14.762 0 010 77.01c0-3.917 1.55-7.673 4.308-10.432L66 4.345A14.505 14.505 0 0176.342 0c3.883 0 7.606 1.564 10.342 4.345l309 311.71a14.765 14.765 0 010 20.866z" fill="#12202B"/></g></svg>
