<svg xmlns="https://www.w3.org/2000/svg" width="39" height="49" viewBox="0 0 39 49">
  <defs>
    <filter id="mobilelogo-a" width="111.9%" height="103.8%" x="-5.9%" y="-1.9%" filterUnits="objectBoundingBox">
      <feOffset dy="2" in="SourceAlpha" result="shadowOffsetOuter1"/>
      <feGaussianBlur in="shadowOffsetOuter1" result="shadowBlurOuter1" stdDeviation="3"/>
      <feColorMatrix in="shadowBlurOuter1" result="shadowMatrixOuter1" values="0 0 0 0 0   0 0 0 0 0   0 0 0 0 0  0 0 0 0.174353113 0"/>
      <feMerge>
        <feMergeNode in="shadowMatrixOuter1"/>
        <feMergeNode in="SourceGraphic"/>
      </feMerge>
    </filter>
  </defs>
  <g fill="none" filter="url(#mobilelogo-a)" transform="translate(-17 -6)">
    <g transform="translate(29 18)">
      <path fill="#D9445E" d="M12.4417055,0.161871639 L14.739832,2.48015712 C14.9542345,2.69644031 14.9542345,3.04114165 14.739832,3.25742484 L11.2892923,6.74499134 L8.22065691,3.64267928 L11.6711967,0.161871639 C11.7730935,0.05827088 11.9117782,1.84414142e-13 12.0564511,1.84414142e-13 C12.201124,1.84414142e-13 12.3398086,0.05827088 12.4417055,0.161871639 Z M5.91583036,12.15883 L14.739832,21.066994 C14.9542345,21.2832772 14.9542345,21.6279786 14.739832,21.8375029 L12.4417055,24.1625472 C12.3398086,24.266148 12.201124,24.3244189 12.0564511,24.3244189 C11.9117782,24.3244189 11.7730935,24.266148 11.6711967,24.1625472 L0.160464059,12.5508433 C0.0577641767,12.4480526 2.76621213e-13,12.3081514 2.76621213e-13,12.1622094 C2.76621213e-13,12.0162675 0.0577641767,11.8763663 0.160464059,11.7735756 L3.61100381,8.29276794 L6.68633924,11.3883211 L5.91583036,12.15883 Z"/>
      <path fill="#1C2D39" d="M3.61770389,17.5794275 L6.68633924,20.6817396 L3.22909941,24.1625472 C3.12720252,24.266148 2.98851785,24.3244189 2.84384497,24.3244189 C2.69917209,24.3244189 2.56048742,24.266148 2.45859053,24.1625472 L0.160464059,21.8375029 C-0.0490252147,21.624137 -0.0490252147,21.28036 0.160464059,21.066994 L3.61100381,17.5726687 L3.61770389,17.5794275 Z M14.739832,12.5508433 L11.2892923,16.0316509 L8.22065691,12.9360977 L8.98446571,12.15883 L0.160464059,3.25742484 C0.0577641767,3.15463412 0,3.01473292 0,2.86879098 C0,2.72284904 0.0577641767,2.58294784 0.160464059,2.48015712 L2.45859053,0.161871639 C2.56048742,0.05827088 2.69917209,0 2.84384497,0 C2.98851785,0 3.12720252,0.05827088 3.22909941,0.161871639 L14.739832,11.7735756 C14.9542345,11.9898588 14.9542345,12.3345601 14.739832,12.5508433 Z"/>
    </g>
  </g>
</svg>
