<svg xmlns="http://www.w3.org/2000/svg" width="257" height="30" viewBox="0 0 257 30">
  <g fill="none">
    <path fill="#D9445E" d="M15.3400183,0.199579864 L18.1734966,3.0579132 C18.4378444,3.32457986 18.4378444,3.74957986 18.1734966,4.01624653 L13.9191487,8.31624653 L10.1356705,4.49124653 L14.3900183,0.199579864 C14.5156522,0.0718451633 14.6866437,2.27373675e-13 14.8650183,2.27373675e-13 C15.0433929,2.27373675e-13 15.2143844,0.0718451633 15.3400183,0.199579864 Z M7.29393134,14.9912465 L18.1734966,25.9745799 C18.4378444,26.2412465 18.4378444,26.6662465 18.1734966,26.9245799 L15.3400183,29.7912465 C15.2143844,29.9189812 15.0433929,29.9908264 14.8650183,29.9908264 C14.6866437,29.9908264 14.5156522,29.9189812 14.3900183,29.7912465 L0.197844387,15.4745799 C0.0712204227,15.3478439 3.41060513e-13,15.1753525 3.41060513e-13,14.9954132 C3.41060513e-13,14.8154739 0.0712204227,14.6429825 0.197844387,14.5162465 L4.45219221,10.2245799 L8.24393134,14.0412465 L7.29393134,14.9912465 Z"/>
    <path fill="#1C2D39" d="M4.46045308 21.6745799L8.24393134 25.4995799 3.98132265 29.7912465C3.85568874 29.9189812 3.68469728 29.9908264 3.50632265 29.9908264 3.32794802 29.9908264 3.15695656 29.9189812 3.03132265 29.7912465L.197844387 26.9245799C-.0604457072 26.66151-.0604457072 26.2376497.197844387 25.9745799L4.45219221 21.6662465 4.46045308 21.6745799zM18.1734966 15.4745799L13.9191487 19.7662465 10.1356705 15.9495799 11.0774096 14.9912465.197844387 4.01624653C.0712204227 3.88951057 0 3.71701918 0 3.53707986 0 3.35714055.0712204227 3.18464916.197844387 3.0579132L3.03132265.199579864C3.15695656.0718451633 3.32794802 0 3.50632265 0 3.68469728 0 3.85568874.0718451633 3.98132265.199579864L18.1734966 14.5162465C18.4378444 14.7829132 18.4378444 15.2079132 18.1734966 15.4745799zM35.3 22L35.3 16.35 36.45 16.35C36.7166667 16.35 36.9183333 16.3866667 37.055 16.46 37.1916667 16.5333333 37.3166667 16.6566667 37.43 16.83L37.43 16.83 40.47 21.46C40.6766667 21.82 41.01 22 41.47 22L41.47 22 43.9 22 40.28 16.66C40.16 16.4733333 40.0266667 16.3116667 39.88 16.175 39.7333333 16.0383333 39.5733333 15.92 39.4 15.82 39.9066667 15.6666667 40.3583333 15.4566667 40.755 15.19 41.1516667 14.9233333 41.485 14.6133333 41.755 14.26 42.025 13.9066667 42.2316667 13.5133333 42.375 13.08 42.5183333 12.6466667 42.59 12.1866667 42.59 11.7 42.59 11.0866667 42.4833333 10.525 42.27 10.015 42.0566667 9.505 41.725 9.06666667 41.275 8.7 40.825 8.33333333 40.2483333 8.04833333 39.545 7.845 38.8416667 7.64166667 38 7.54 37.02 7.54L37.02 7.54 32.61 7.54 32.61 22 35.3 22zM36.98 14.42L35.3 14.42 35.3 9.62 37.02 9.62C38.0133333 9.62 38.7516667 9.81666667 39.235 10.21 39.7183333 10.6033333 39.96 11.1666667 39.96 11.9 39.96 12.2666667 39.9 12.6033333 39.78 12.91 39.66 13.2166667 39.4783333 13.4816667 39.235 13.705 38.9916667 13.9283333 38.6816667 14.1033333 38.305 14.23 37.9283333 14.3566667 37.4866667 14.42 36.98 14.42L36.98 14.42zM48.55 22.15C49.31 22.15 50.0016667 22.0266667 50.625 21.78 51.2483333 21.5333333 51.7816667 21.18 52.225 20.72 52.6683333 20.26 53.01 19.7033333 53.25 19.05 53.49 18.3966667 53.61 17.6633333 53.61 16.85 53.61 16.0433333 53.49 15.3133333 53.25 14.66 53.01 14.0066667 52.6683333 13.4533333 52.225 13 51.7816667 12.5466667 51.2483333 12.1966667 50.625 11.95 50.0016667 11.7033333 49.31 11.58 48.55 11.58 47.7833333 11.58 47.0866667 11.7033333 46.46 11.95 45.8333333 12.1966667 45.2983333 12.5466667 44.855 13 44.4116667 13.4533333 44.0683333 14.0066667 43.825 14.66 43.5816667 15.3133333 43.46 16.0433333 43.46 16.85 43.46 17.6633333 43.5816667 18.3966667 43.825 19.05 44.0683333 19.7033333 44.4116667 20.26 44.855 20.72 45.2983333 21.18 45.8333333 21.5333333 46.46 21.78 47.0866667 22.0266667 47.7833333 22.15 48.55 22.15zM48.55 20.25C47.6833333 20.25 47.0416667 19.9616667 46.625 19.385 46.2083333 18.8083333 46 17.97 46 16.87 46 15.77 46.2083333 14.9283333 46.625 14.345 47.0416667 13.7616667 47.6833333 13.47 48.55 13.47 49.4033333 13.47 50.035 13.76 50.445 14.34 50.855 14.92 51.06 15.7633333 51.06 16.87 51.06 17.9766667 50.855 18.8166667 50.445 19.39 50.035 19.9633333 49.4033333 20.25 48.55 20.25zM57.65 25.35C57.89 25.35 58.0683333 25.305 58.185 25.215 58.3016667 25.125 58.3966667 24.9933333 58.47 24.82L58.47 24.82 64.06 11.74 62.08 11.74C61.9266667 11.74 61.7883333 11.7833333 61.665 11.87 61.5416667 11.9566667 61.4533333 12.0666667 61.4 12.2L61.4 12.2 59.34 17.51C59.2666667 17.69 59.2 17.8716667 59.14 18.055 59.08 18.2383333 59.02 18.4233333 58.96 18.61 58.9133333 18.4233333 58.865 18.24 58.815 18.06 58.765 17.88 58.7033333 17.7 58.63 17.52L58.63 17.52 56.45 12.2C56.3966667 12.08 56.315 11.9733333 56.205 11.88 56.095 11.7866667 55.9433333 11.74 55.75 11.74L55.75 11.74 53.58 11.74 57.73 21.23 55.81 25.35 57.65 25.35zM66.92 22.16C67.2866667 22.16 67.6216667 22.1283333 67.925 22.065 68.2283333 22.0016667 68.5133333 21.91 68.78 21.79 69.0466667 21.67 69.3033333 21.5216667 69.55 21.345 69.7966667 21.1683333 70.05 20.9633333 70.31 20.73L70.31 20.73 70.53 21.47C70.6033333 21.6833333 70.7033333 21.825 70.83 21.895 70.9566667 21.965 71.1366667 22 71.37 22L71.37 22 72.49 22 72.49 15.52C72.49 14.94 72.405 14.4066667 72.235 13.92 72.065 13.4333333 71.8166667 13.015 71.49 12.665 71.1633333 12.315 70.7633333 12.0416667 70.29 11.845 69.8166667 11.6483333 69.28 11.55 68.68 11.55 67.02 11.55 65.6 12.09 64.42 13.17L64.42 13.17 64.86 13.96C64.9333333 14.08 65.03 14.185 65.15 14.275 65.27 14.365 65.4166667 14.41 65.59 14.41 65.79 14.41 65.9716667 14.3633333 66.135 14.27 66.2983333 14.1766667 66.48 14.0716667 66.68 13.955 66.88 13.8383333 67.1116667 13.7333333 67.375 13.64 67.6383333 13.5466667 67.97 13.5 68.37 13.5 68.9233333 13.5 69.3466667 13.665 69.64 13.995 69.9333333 14.325 70.08 14.8333333 70.08 15.52L70.08 15.52 70.08 16.12C69.3 16.14 68.6066667 16.1983333 68 16.295 67.3933333 16.3916667 66.8616667 16.5166667 66.405 16.67 65.9483333 16.8233333 65.5633333 17.0033333 65.25 17.21 64.9366667 17.4166667 64.6816667 17.6366667 64.485 17.87 64.2883333 18.1033333 64.1466667 18.3483333 64.06 18.605 63.9733333 18.8616667 63.93 19.12 63.93 19.38 63.93 19.84 64.0033333 20.2433333 64.15 20.59 64.2966667 20.9366667 64.5033333 21.2266667 64.77 21.46 65.0366667 21.6933333 65.3533333 21.8683333 65.72 21.985 66.0866667 22.1016667 66.4866667 22.16 66.92 22.16zM67.68 20.46C67.2666667 20.46 66.9316667 20.3666667 66.675 20.18 66.4183333 19.9933333 66.29 19.6833333 66.29 19.25 66.29 19.03 66.3533333 18.8266667 66.48 18.64 66.6066667 18.4533333 66.8166667 18.29 67.11 18.15 67.4033333 18.01 67.7933333 17.895 68.28 17.805 68.7666667 17.715 69.3666667 17.6533333 70.08 17.62L70.08 17.62 70.08 19.35C69.7266667 19.7233333 69.365 20.0016667 68.995 20.185 68.625 20.3683333 68.1866667 20.46 67.68 20.46zM76.91 22L76.91 7.14 74.44 7.14 74.44 22 76.91 22zM86.2 22L86.2 13.12C86.2 12.7466667 86.18 12.34 86.14 11.9L86.14 11.9 93.69 21.54C93.8233333 21.7066667 93.9616667 21.825 94.105 21.895 94.2483333 21.965 94.4266667 22 94.64 22L94.64 22 96.02 22 96.02 7.54 93.65 7.54 93.65 16.33C93.65 16.5233333 93.6566667 16.7333333 93.67 16.96 93.6833333 17.1866667 93.7 17.4166667 93.72 17.65L93.72 17.65 86.14 7.97C86.0666667 7.87666667 86 7.80166667 85.94 7.745 85.88 7.68833333 85.8183333 7.645 85.755 7.615 85.6916667 7.585 85.6183333 7.565 85.535 7.555 85.4516667 7.545 85.3533333 7.54 85.24 7.54L85.24 7.54 83.83 7.54 83.83 22 86.2 22zM100.45 22.16C100.816667 22.16 101.151667 22.1283333 101.455 22.065 101.758333 22.0016667 102.043333 21.91 102.31 21.79 102.576667 21.67 102.833333 21.5216667 103.08 21.345 103.326667 21.1683333 103.58 20.9633333 103.84 20.73L103.84 20.73 104.06 21.47C104.133333 21.6833333 104.233333 21.825 104.36 21.895 104.486667 21.965 104.666667 22 104.9 22L104.9 22 106.02 22 106.02 15.52C106.02 14.94 105.935 14.4066667 105.765 13.92 105.595 13.4333333 105.346667 13.015 105.02 12.665 104.693333 12.315 104.293333 12.0416667 103.82 11.845 103.346667 11.6483333 102.81 11.55 102.21 11.55 100.55 11.55 99.13 12.09 97.95 13.17L97.95 13.17 98.39 13.96C98.4633333 14.08 98.56 14.185 98.68 14.275 98.8 14.365 98.9466667 14.41 99.12 14.41 99.32 14.41 99.5016667 14.3633333 99.665 14.27 99.8283333 14.1766667 100.01 14.0716667 100.21 13.955 100.41 13.8383333 100.641667 13.7333333 100.905 13.64 101.168333 13.5466667 101.5 13.5 101.9 13.5 102.453333 13.5 102.876667 13.665 103.17 13.995 103.463333 14.325 103.61 14.8333333 103.61 15.52L103.61 15.52 103.61 16.12C102.83 16.14 102.136667 16.1983333 101.53 16.295 100.923333 16.3916667 100.391667 16.5166667 99.935 16.67 99.4783333 16.8233333 99.0933333 17.0033333 98.78 17.21 98.4666667 17.4166667 98.2116667 17.6366667 98.015 17.87 97.8183333 18.1033333 97.6766667 18.3483333 97.59 18.605 97.5033333 18.8616667 97.46 19.12 97.46 19.38 97.46 19.84 97.5333333 20.2433333 97.68 20.59 97.8266667 20.9366667 98.0333333 21.2266667 98.3 21.46 98.5666667 21.6933333 98.8833333 21.8683333 99.25 21.985 99.6166667 22.1016667 100.016667 22.16 100.45 22.16zM101.21 20.46C100.796667 20.46 100.461667 20.3666667 100.205 20.18 99.9483333 19.9933333 99.82 19.6833333 99.82 19.25 99.82 19.03 99.8833333 18.8266667 100.01 18.64 100.136667 18.4533333 100.346667 18.29 100.64 18.15 100.933333 18.01 101.323333 17.895 101.81 17.805 102.296667 17.715 102.896667 17.6533333 103.61 17.62L103.61 17.62 103.61 19.35C103.256667 19.7233333 102.895 20.0016667 102.525 20.185 102.155 20.3683333 101.716667 20.46 101.21 20.46zM112.88 22L116.95 11.74 115 11.74C114.833333 11.74 114.69 11.7833333 114.57 11.87 114.45 11.9566667 114.366667 12.0666667 114.32 12.2L114.32 12.2 112.3 17.68C112.186667 18 112.09 18.3133333 112.01 18.62 111.93 18.9266667 111.856667 19.2333333 111.79 19.54 111.73 19.2333333 111.66 18.9266667 111.58 18.62 111.5 18.3133333 111.406667 18 111.3 17.68L111.3 17.68 109.32 12.2C109.28 12.0666667 109.198333 11.9566667 109.075 11.87 108.951667 11.7833333 108.796667 11.74 108.61 11.74L108.61 11.74 106.57 11.74 110.64 22 112.88 22zM120.77 25.35C121.01 25.35 121.188333 25.305 121.305 25.215 121.421667 25.125 121.516667 24.9933333 121.59 24.82L121.59 24.82 127.18 11.74 125.2 11.74C125.046667 11.74 124.908333 11.7833333 124.785 11.87 124.661667 11.9566667 124.573333 12.0666667 124.52 12.2L124.52 12.2 122.46 17.51C122.386667 17.69 122.32 17.8716667 122.26 18.055 122.2 18.2383333 122.14 18.4233333 122.08 18.61 122.033333 18.4233333 121.985 18.24 121.935 18.06 121.885 17.88 121.823333 17.7 121.75 17.52L121.75 17.52 119.57 12.2C119.516667 12.08 119.435 11.9733333 119.325 11.88 119.215 11.7866667 119.063333 11.74 118.87 11.74L118.87 11.74 116.7 11.74 120.85 21.23 118.93 25.35 120.77 25.35zM137.87 22C138.97 22 139.97 21.8233333 140.87 21.47 141.77 21.1166667 142.54 20.62 143.18 19.98 143.82 19.34 144.316667 18.5766667 144.67 17.69 145.023333 16.8033333 145.2 15.83 145.2 14.77 145.2 13.71 145.023333 12.7366667 144.67 11.85 144.316667 10.9633333 143.82 10.2016667 143.18 9.565 142.54 8.92833333 141.77 8.43166667 140.87 8.075 139.97 7.71833333 138.97 7.54 137.87 7.54L137.87 7.54 132.36 7.54 132.36 22 137.87 22zM137.87 19.86L135.06 19.86 135.06 9.68 137.87 9.68C138.576667 9.68 139.211667 9.79666667 139.775 10.03 140.338333 10.2633333 140.818333 10.5983333 141.215 11.035 141.611667 11.4716667 141.915 12.005 142.125 12.635 142.335 13.265 142.44 13.9766667 142.44 14.77 142.44 15.5633333 142.335 16.275 142.125 16.905 141.915 17.535 141.611667 18.0683333 141.215 18.505 140.818333 18.9416667 140.338333 19.2766667 139.775 19.51 139.211667 19.7433333 138.576667 19.86 137.87 19.86L137.87 19.86zM151.14 22.15C151.5 22.15 151.871667 22.1233333 152.255 22.07 152.638333 22.0166667 153.015 21.925 153.385 21.795 153.755 21.665 154.11 21.4916667 154.45 21.275 154.79 21.0583333 155.096667 20.79 155.37 20.47L155.37 20.47 154.66 19.57C154.56 19.4166667 154.406667 19.34 154.2 19.34 154.046667 19.34 153.888333 19.3866667 153.725 19.48 153.561667 19.5733333 153.371667 19.6766667 153.155 19.79 152.938333 19.9033333 152.685 20.0066667 152.395 20.1 152.105 20.1933333 151.76 20.24 151.36 20.24 150.96 20.24 150.595 20.1783333 150.265 20.055 149.935 19.9316667 149.65 19.745 149.41 19.495 149.17 19.245 148.976667 18.9283333 148.83 18.545 148.683333 18.1616667 148.59 17.7066667 148.55 17.18L148.55 17.18 154.9 17.18C155.126667 17.18 155.28 17.115 155.36 16.985 155.44 16.855 155.48 16.6033333 155.48 16.23 155.48 15.49 155.368333 14.8316667 155.145 14.255 154.921667 13.6783333 154.613333 13.1916667 154.22 12.795 153.826667 12.3983333 153.356667 12.0966667 152.81 11.89 152.263333 11.6833333 151.666667 11.58 151.02 11.58 150.253333 11.58 149.565 11.7133333 148.955 11.98 148.345 12.2466667 147.828333 12.6083333 147.405 13.065 146.981667 13.5216667 146.656667 14.0583333 146.43 14.675 146.203333 15.2916667 146.09 15.95 146.09 16.65 146.09 17.55 146.22 18.3416667 146.48 19.025 146.74 19.7083333 147.096667 20.2816667 147.55 20.745 148.003333 21.2083333 148.536667 21.5583333 149.15 21.795 149.763333 22.0316667 150.426667 22.15 151.14 22.15zM153.26 15.69L148.6 15.69C148.713333 14.9433333 148.975 14.3666667 149.385 13.96 149.795 13.5533333 150.356667 13.35 151.07 13.35 151.436667 13.35 151.758333 13.4116667 152.035 13.535 152.311667 13.6583333 152.54 13.8266667 152.72 14.04 152.9 14.2533333 153.035 14.5016667 153.125 14.785 153.215 15.0683333 153.26 15.37 153.26 15.69L153.26 15.69zM159.76 22.16C160.426667 22.16 161.015 22.075 161.525 21.905 162.035 21.735 162.463333 21.4983333 162.81 21.195 163.156667 20.8916667 163.418333 20.5316667 163.595 20.115 163.771667 19.6983333 163.86 19.2433333 163.86 18.75 163.86 18.3366667 163.788333 17.9833333 163.645 17.69 163.501667 17.3966667 163.311667 17.145 163.075 16.935 162.838333 16.725 162.57 16.5516667 162.27 16.415 161.97 16.2783333 161.665 16.1566667 161.355 16.05 161.045 15.9433333 160.74 15.845 160.44 15.755 160.14 15.665 159.871667 15.5633333 159.635 15.45 159.398333 15.3366667 159.208333 15.205 159.065 15.055 158.921667 14.905 158.85 14.72 158.85 14.5 158.85 14.1666667 158.988333 13.8966667 159.265 13.69 159.541667 13.4833333 159.923333 13.38 160.41 13.38 160.723333 13.38 160.995 13.4133333 161.225 13.48 161.455 13.5466667 161.66 13.6216667 161.84 13.705 162.02 13.7883333 162.178333 13.8633333 162.315 13.93 162.451667 13.9966667 162.58 14.03 162.7 14.03 162.813333 14.03 162.906667 14.0083333 162.98 13.965 163.053333 13.9216667 163.123333 13.8466667 163.19 13.74L163.19 13.74 163.75 12.85C163.363333 12.47 162.88 12.1633333 162.3 11.93 161.72 11.6966667 161.076667 11.58 160.37 11.58 159.736667 11.58 159.178333 11.665 158.695 11.835 158.211667 12.005 157.808333 12.2316667 157.485 12.515 157.161667 12.7983333 156.916667 13.13 156.75 13.51 156.583333 13.89 156.5 14.29 156.5 14.71 156.5 15.1633333 156.571667 15.55 156.715 15.87 156.858333 16.19 157.048333 16.46 157.285 16.68 157.521667 16.9 157.791667 17.0816667 158.095 17.225 158.398333 17.3683333 158.708333 17.4933333 159.025 17.6 159.341667 17.7066667 159.651667 17.805 159.955 17.895 160.258333 17.985 160.528333 18.0866667 160.765 18.2 161.001667 18.3133333 161.191667 18.4466667 161.335 18.6 161.478333 18.7533333 161.55 18.95 161.55 19.19 161.55 19.35 161.518333 19.505 161.455 19.655 161.391667 19.805 161.291667 19.9366667 161.155 20.05 161.018333 20.1633333 160.845 20.255 160.635 20.325 160.425 20.395 160.173333 20.43 159.88 20.43 159.506667 20.43 159.198333 20.3866667 158.955 20.3 158.711667 20.2133333 158.5 20.12 158.32 20.02 158.14 19.92 157.981667 19.8266667 157.845 19.74 157.708333 19.6533333 157.563333 19.61 157.41 19.61 157.256667 19.61 157.13 19.64 157.03 19.7 156.93 19.76 156.843333 19.8466667 156.77 19.96L156.77 19.96 156.2 20.9C156.4 21.08 156.631667 21.2466667 156.895 21.4 157.158333 21.5533333 157.445 21.6866667 157.755 21.8 158.065 21.9133333 158.388333 22.0016667 158.725 22.065 159.061667 22.1283333 159.406667 22.16 159.76 22.16zM166.62 10.3C166.84 10.3 167.046667 10.2583333 167.24 10.175 167.433333 10.0916667 167.601667 9.98 167.745 9.84 167.888333 9.7 168.003333 9.53666667 168.09 9.35 168.176667 9.16333333 168.22 8.96333333 168.22 8.75 168.22 8.53 168.176667 8.32333333 168.09 8.13 168.003333 7.93666667 167.888333 7.77 167.745 7.63 167.601667 7.49 167.433333 7.37833333 167.24 7.295 167.046667 7.21166667 166.84 7.17 166.62 7.17 166.406667 7.17 166.205 7.21166667 166.015 7.295 165.825 7.37833333 165.66 7.49 165.52 7.63 165.38 7.77 165.268333 7.93666667 165.185 8.13 165.101667 8.32333333 165.06 8.53 165.06 8.75 165.06 8.96333333 165.101667 9.16333333 165.185 9.35 165.268333 9.53666667 165.38 9.7 165.52 9.84 165.66 9.98 165.825 10.0916667 166.015 10.175 166.205 10.2583333 166.406667 10.3 166.62 10.3zM167.88 22L167.88 11.74 165.4 11.74 165.4 22 167.88 22zM173.85 25.61C174.636667 25.61 175.338333 25.5083333 175.955 25.305 176.571667 25.1016667 177.091667 24.8333333 177.515 24.5 177.938333 24.1666667 178.261667 23.7866667 178.485 23.36 178.708333 22.9333333 178.82 22.4933333 178.82 22.04 178.82 21.5533333 178.725 21.155 178.535 20.845 178.345 20.535 178.093333 20.29 177.78 20.11 177.466667 19.93 177.11 19.7983333 176.71 19.715 176.31 19.6316667 175.9 19.5733333 175.48 19.54 175.06 19.5066667 174.65 19.485 174.25 19.475 173.85 19.465 173.493333 19.44 173.18 19.4 172.866667 19.36 172.615 19.2916667 172.425 19.195 172.235 19.0983333 172.14 18.9466667 172.14 18.74 172.14 18.5 172.3 18.2833333 172.62 18.09 172.8 18.1233333 172.983333 18.15 173.17 18.17 173.356667 18.19 173.55 18.2 173.75 18.2 174.316667 18.2 174.845 18.1216667 175.335 17.965 175.825 17.8083333 176.25 17.5866667 176.61 17.3 176.97 17.0133333 177.251667 16.665 177.455 16.255 177.658333 15.845 177.76 15.3866667 177.76 14.88 177.76 14.46 177.69 14.0733333 177.55 13.72L177.55 13.72 178.47 13.55C178.823333 13.4833333 179 13.3033333 179 13.01L179 13.01 179 12.09 176.05 12.09C175.73 11.9166667 175.376667 11.785 174.99 11.695 174.603333 11.605 174.19 11.56 173.75 11.56 173.163333 11.56 172.621667 11.6366667 172.125 11.79 171.628333 11.9433333 171.198333 12.165 170.835 12.455 170.471667 12.745 170.188333 13.095 169.985 13.505 169.781667 13.915 169.68 14.3733333 169.68 14.88 169.68 15.5066667 169.828333 16.0533333 170.125 16.52 170.421667 16.9866667 170.83 17.36 171.35 17.64 171.123333 17.7533333 170.926667 17.8816667 170.76 18.025 170.593333 18.1683333 170.455 18.32 170.345 18.48 170.235 18.64 170.151667 18.8016667 170.095 18.965 170.038333 19.1283333 170.01 19.2866667 170.01 19.44 170.01 19.82 170.09 20.1266667 170.25 20.36 170.41 20.5933333 170.626667 20.78 170.9 20.92 170.393333 21.1133333 169.995 21.3716667 169.705 21.695 169.415 22.0183333 169.27 22.42 169.27 22.9 169.27 23.2533333 169.363333 23.5933333 169.55 23.92 169.736667 24.2466667 170.02 24.535 170.4 24.785 170.78 25.035 171.256667 25.235 171.83 25.385 172.403333 25.535 173.076667 25.61 173.85 25.61zM173.75 16.62C173.45 16.62 173.185 16.5783333 172.955 16.495 172.725 16.4116667 172.535 16.295 172.385 16.145 172.235 15.995 172.121667 15.8166667 172.045 15.61 171.968333 15.4033333 171.93 15.18 171.93 14.94 171.93 14.4333333 172.081667 14.0316667 172.385 13.735 172.688333 13.4383333 173.143333 13.29 173.75 13.29 174.356667 13.29 174.811667 13.4383333 175.115 13.735 175.418333 14.0316667 175.57 14.4333333 175.57 14.94 175.57 15.1866667 175.531667 15.4133333 175.455 15.62 175.378333 15.8266667 175.265 16.0033333 175.115 16.15 174.965 16.2966667 174.776667 16.4116667 174.55 16.495 174.323333 16.5783333 174.056667 16.62 173.75 16.62zM173.9 23.85C173.446667 23.85 173.063333 23.8183333 172.75 23.755 172.436667 23.6916667 172.181667 23.6033333 171.985 23.49 171.788333 23.3766667 171.645 23.2416667 171.555 23.085 171.465 22.9283333 171.42 22.76 171.42 22.58 171.42 22.3066667 171.505 22.0666667 171.675 21.86 171.845 21.6533333 172.066667 21.4733333 172.34 21.32 172.653333 21.36 172.975 21.3866667 173.305 21.4 173.635 21.4133333 173.955 21.4283333 174.265 21.445 174.575 21.4616667 174.868333 21.4866667 175.145 21.52 175.421667 21.5533333 175.663333 21.605 175.87 21.675 176.076667 21.745 176.24 21.8433333 176.36 21.97 176.48 22.0966667 176.54 22.26 176.54 22.46 176.54 22.66 176.49 22.845 176.39 23.015 176.29 23.185 176.131667 23.3316667 175.915 23.455 175.698333 23.5783333 175.423333 23.675 175.09 23.745 174.756667 23.815 174.36 23.85 173.9 23.85zM182.63 22L182.63 14.58C182.963333 14.2466667 183.316667 13.9833333 183.69 13.79 184.063333 13.5966667 184.463333 13.5 184.89 13.5 185.476667 13.5 185.913333 13.6716667 186.2 14.015 186.486667 14.3583333 186.63 14.8433333 186.63 15.47L186.63 15.47 186.63 22 189.1 22 189.1 15.47C189.1 14.8966667 189.025 14.3716667 188.875 13.895 188.725 13.4183333 188.505 13.0083333 188.215 12.665 187.925 12.3216667 187.563333 12.055 187.13 11.865 186.696667 11.675 186.2 11.58 185.64 11.58 185.293333 11.58 184.973333 11.615 184.68 11.685 184.386667 11.755 184.111667 11.8516667 183.855 11.975 183.598333 12.0983333 183.355 12.2483333 183.125 12.425 182.895 12.6016667 182.676667 12.7933333 182.47 13L182.47 13 182.3 12.19C182.2 11.89 181.99 11.74 181.67 11.74L181.67 11.74 180.16 11.74 180.16 22 182.63 22zM199.5 22.16C200.3 22.16 201.01 22.0383333 201.63 21.795 202.25 21.5516667 202.775 21.2183333 203.205 20.795 203.635 20.3716667 203.961667 19.875 204.185 19.305 204.408333 18.735 204.52 18.1233333 204.52 17.47 204.52 16.87 204.425 16.36 204.235 15.94 204.045 15.52 203.793333 15.165 203.48 14.875 203.166667 14.585 202.81 14.345 202.41 14.155 202.01 13.965 201.6 13.7983333 201.18 13.655 200.76 13.5116667 200.35 13.3766667 199.95 13.25 199.55 13.1233333 199.193333 12.98 198.88 12.82 198.566667 12.66 198.315 12.4666667 198.125 12.24 197.935 12.0133333 197.84 11.73 197.84 11.39 197.84 11.1233333 197.886667 10.8783333 197.98 10.655 198.073333 10.4316667 198.215 10.24 198.405 10.08 198.595 9.92 198.83 9.795 199.11 9.705 199.39 9.615 199.716667 9.57 200.09 9.57 200.503333 9.57 200.861667 9.62166667 201.165 9.725 201.468333 9.82833333 201.733333 9.94333333 201.96 10.07 202.186667 10.1966667 202.381667 10.3116667 202.545 10.415 202.708333 10.5183333 202.86 10.57 203 10.57 203.133333 10.57 203.245 10.5383333 203.335 10.475 203.425 10.4116667 203.51 10.31 203.59 10.17L203.59 10.17 204.26 8.9C203.753333 8.42 203.14 8.04666667 202.42 7.78 201.7 7.51333333 200.913333 7.38 200.06 7.38 199.3 7.38 198.626667 7.49666667 198.04 7.73 197.453333 7.96333333 196.96 8.27333333 196.56 8.66 196.16 9.04666667 195.855 9.49 195.645 9.99 195.435 10.49 195.33 11.0033333 195.33 11.53 195.33 12.19 195.425 12.745 195.615 13.195 195.805 13.645 196.056667 14.02 196.37 14.32 196.683333 14.62 197.04 14.8633333 197.44 15.05 197.84 15.2366667 198.246667 15.3966667 198.66 15.53 199.073333 15.6633333 199.48 15.7866667 199.88 15.9 200.28 16.0133333 200.636667 16.1516667 200.95 16.315 201.263333 16.4783333 201.515 16.68 201.705 16.92 201.895 17.16 201.99 17.47 201.99 17.85 201.99 18.53 201.78 19.0516667 201.36 19.415 200.94 19.7783333 200.346667 19.96 199.58 19.96 199.08 19.96 198.651667 19.8916667 198.295 19.755 197.938333 19.6183333 197.626667 19.4666667 197.36 19.3 197.093333 19.1333333 196.863333 18.9816667 196.67 18.845 196.476667 18.7083333 196.296667 18.64 196.13 18.64 196.01 18.64 195.896667 18.6716667 195.79 18.735 195.683333 18.7983333 195.596667 18.8766667 195.53 18.97L195.53 18.97 194.74 20.26C195.02 20.5466667 195.34 20.8066667 195.7 21.04 196.06 21.2733333 196.445 21.4733333 196.855 21.64 197.265 21.8066667 197.693333 21.935 198.14 22.025 198.586667 22.115 199.04 22.16 199.5 22.16zM208.47 25.35C208.71 25.35 208.888333 25.305 209.005 25.215 209.121667 25.125 209.216667 24.9933333 209.29 24.82L209.29 24.82 214.88 11.74 212.9 11.74C212.746667 11.74 212.608333 11.7833333 212.485 11.87 212.361667 11.9566667 212.273333 12.0666667 212.22 12.2L212.22 12.2 210.16 17.51C210.086667 17.69 210.02 17.8716667 209.96 18.055 209.9 18.2383333 209.84 18.4233333 209.78 18.61 209.733333 18.4233333 209.685 18.24 209.635 18.06 209.585 17.88 209.523333 17.7 209.45 17.52L209.45 17.52 207.27 12.2C207.216667 12.08 207.135 11.9733333 207.025 11.88 206.915 11.7866667 206.763333 11.74 206.57 11.74L206.57 11.74 204.4 11.74 208.55 21.23 206.63 25.35 208.47 25.35zM218.33 22.16C218.996667 22.16 219.585 22.075 220.095 21.905 220.605 21.735 221.033333 21.4983333 221.38 21.195 221.726667 20.8916667 221.988333 20.5316667 222.165 20.115 222.341667 19.6983333 222.43 19.2433333 222.43 18.75 222.43 18.3366667 222.358333 17.9833333 222.215 17.69 222.071667 17.3966667 221.881667 17.145 221.645 16.935 221.408333 16.725 221.14 16.5516667 220.84 16.415 220.54 16.2783333 220.235 16.1566667 219.925 16.05 219.615 15.9433333 219.31 15.845 219.01 15.755 218.71 15.665 218.441667 15.5633333 218.205 15.45 217.968333 15.3366667 217.778333 15.205 217.635 15.055 217.491667 14.905 217.42 14.72 217.42 14.5 217.42 14.1666667 217.558333 13.8966667 217.835 13.69 218.111667 13.4833333 218.493333 13.38 218.98 13.38 219.293333 13.38 219.565 13.4133333 219.795 13.48 220.025 13.5466667 220.23 13.6216667 220.41 13.705 220.59 13.7883333 220.748333 13.8633333 220.885 13.93 221.021667 13.9966667 221.15 14.03 221.27 14.03 221.383333 14.03 221.476667 14.0083333 221.55 13.965 221.623333 13.9216667 221.693333 13.8466667 221.76 13.74L221.76 13.74 222.32 12.85C221.933333 12.47 221.45 12.1633333 220.87 11.93 220.29 11.6966667 219.646667 11.58 218.94 11.58 218.306667 11.58 217.748333 11.665 217.265 11.835 216.781667 12.005 216.378333 12.2316667 216.055 12.515 215.731667 12.7983333 215.486667 13.13 215.32 13.51 215.153333 13.89 215.07 14.29 215.07 14.71 215.07 15.1633333 215.141667 15.55 215.285 15.87 215.428333 16.19 215.618333 16.46 215.855 16.68 216.091667 16.9 216.361667 17.0816667 216.665 17.225 216.968333 17.3683333 217.278333 17.4933333 217.595 17.6 217.911667 17.7066667 218.221667 17.805 218.525 17.895 218.828333 17.985 219.098333 18.0866667 219.335 18.2 219.571667 18.3133333 219.761667 18.4466667 219.905 18.6 220.048333 18.7533333 220.12 18.95 220.12 19.19 220.12 19.35 220.088333 19.505 220.025 19.655 219.961667 19.805 219.861667 19.9366667 219.725 20.05 219.588333 20.1633333 219.415 20.255 219.205 20.325 218.995 20.395 218.743333 20.43 218.45 20.43 218.076667 20.43 217.768333 20.3866667 217.525 20.3 217.281667 20.2133333 217.07 20.12 216.89 20.02 216.71 19.92 216.551667 19.8266667 216.415 19.74 216.278333 19.6533333 216.133333 19.61 215.98 19.61 215.826667 19.61 215.7 19.64 215.6 19.7 215.5 19.76 215.413333 19.8466667 215.34 19.96L215.34 19.96 214.77 20.9C214.97 21.08 215.201667 21.2466667 215.465 21.4 215.728333 21.5533333 216.015 21.6866667 216.325 21.8 216.635 21.9133333 216.958333 22.0016667 217.295 22.065 217.631667 22.1283333 217.976667 22.16 218.33 22.16zM227.31 22.16C227.81 22.16 228.293333 22.0833333 228.76 21.93 229.226667 21.7766667 229.64 21.55 230 21.25L230 21.25 229.26 20.05C229.206667 19.9766667 229.156667 19.9216667 229.11 19.885 229.063333 19.8483333 229.003333 19.83 228.93 19.83 228.87 19.83 228.81 19.8483333 228.75 19.885 228.69 19.9216667 228.621667 19.96 228.545 20 228.468333 20.04 228.378333 20.0783333 228.275 20.115 228.171667 20.1516667 228.043333 20.17 227.89 20.17 227.616667 20.17 227.401667 20.08 227.245 19.9 227.088333 19.72 227.01 19.47 227.01 19.15L227.01 19.15 227.01 13.59 229.75 13.59 229.75 11.83 227.01 11.83 227.01 8.6 225.73 8.6C225.583333 8.6 225.463333 8.63666667 225.37 8.71 225.276667 8.78333333 225.213333 8.88666667 225.18 9.02L225.18 9.02 224.66 11.82 223.01 12.09 223.01 13.07C223.01 13.2433333 223.056667 13.3733333 223.15 13.46 223.243333 13.5466667 223.356667 13.59 223.49 13.59L223.49 13.59 224.54 13.59 224.54 19.32C224.54 20.2066667 224.778333 20.9016667 225.255 21.405 225.731667 21.9083333 226.416667 22.16 227.31 22.16zM235.34 22.15C235.7 22.15 236.071667 22.1233333 236.455 22.07 236.838333 22.0166667 237.215 21.925 237.585 21.795 237.955 21.665 238.31 21.4916667 238.65 21.275 238.99 21.0583333 239.296667 20.79 239.57 20.47L239.57 20.47 238.86 19.57C238.76 19.4166667 238.606667 19.34 238.4 19.34 238.246667 19.34 238.088333 19.3866667 237.925 19.48 237.761667 19.5733333 237.571667 19.6766667 237.355 19.79 237.138333 19.9033333 236.885 20.0066667 236.595 20.1 236.305 20.1933333 235.96 20.24 235.56 20.24 235.16 20.24 234.795 20.1783333 234.465 20.055 234.135 19.9316667 233.85 19.745 233.61 19.495 233.37 19.245 233.176667 18.9283333 233.03 18.545 232.883333 18.1616667 232.79 17.7066667 232.75 17.18L232.75 17.18 239.1 17.18C239.326667 17.18 239.48 17.115 239.56 16.985 239.64 16.855 239.68 16.6033333 239.68 16.23 239.68 15.49 239.568333 14.8316667 239.345 14.255 239.121667 13.6783333 238.813333 13.1916667 238.42 12.795 238.026667 12.3983333 237.556667 12.0966667 237.01 11.89 236.463333 11.6833333 235.866667 11.58 235.22 11.58 234.453333 11.58 233.765 11.7133333 233.155 11.98 232.545 12.2466667 232.028333 12.6083333 231.605 13.065 231.181667 13.5216667 230.856667 14.0583333 230.63 14.675 230.403333 15.2916667 230.29 15.95 230.29 16.65 230.29 17.55 230.42 18.3416667 230.68 19.025 230.94 19.7083333 231.296667 20.2816667 231.75 20.745 232.203333 21.2083333 232.736667 21.5583333 233.35 21.795 233.963333 22.0316667 234.626667 22.15 235.34 22.15zM237.46 15.69L232.8 15.69C232.913333 14.9433333 233.175 14.3666667 233.585 13.96 233.995 13.5533333 234.556667 13.35 235.27 13.35 235.636667 13.35 235.958333 13.4116667 236.235 13.535 236.511667 13.6583333 236.74 13.8266667 236.92 14.04 237.1 14.2533333 237.235 14.5016667 237.325 14.785 237.415 15.0683333 237.46 15.37 237.46 15.69L237.46 15.69zM243.6 22L243.6 14.49C243.866667 14.1833333 244.155 13.9416667 244.465 13.765 244.775 13.5883333 245.11 13.5 245.47 13.5 246.003333 13.5 246.408333 13.6566667 246.685 13.97 246.961667 14.2833333 247.1 14.7833333 247.1 15.47L247.1 15.47 247.1 22 249.58 22 249.58 15.47C249.58 15.15 249.626667 14.8666667 249.72 14.62 249.813333 14.3733333 249.941667 14.1683333 250.105 14.005 250.268333 13.8416667 250.458333 13.7166667 250.675 13.63 250.891667 13.5433333 251.126667 13.5 251.38 13.5 251.933333 13.5 252.353333 13.665 252.64 13.995 252.926667 14.325 253.07 14.8166667 253.07 15.47L253.07 15.47 253.07 22 255.54 22 255.54 15.47C255.54 14.85 255.461667 14.3 255.305 13.82 255.148333 13.34 254.92 12.9333333 254.62 12.6 254.32 12.2666667 253.95 12.0133333 253.51 11.84 253.07 11.6666667 252.566667 11.58 252 11.58 251.673333 11.58 251.348333 11.6166667 251.025 11.69 250.701667 11.7633333 250.396667 11.8766667 250.11 12.03 249.823333 12.1833333 249.56 12.3816667 249.32 12.625 249.08 12.8683333 248.88 13.16 248.72 13.5 248.513333 12.92 248.201667 12.455 247.785 12.105 247.368333 11.755 246.836667 11.58 246.19 11.58 245.883333 11.58 245.601667 11.615 245.345 11.685 245.088333 11.755 244.848333 11.85 244.625 11.97 244.401667 12.09 244.191667 12.2333333 243.995 12.4 243.798333 12.5666667 243.61 12.75 243.43 12.95L243.43 12.95 243.27 12.19C243.17 11.89 242.96 11.74 242.64 11.74L242.64 11.74 241.13 11.74 241.13 22 243.6 22z"/>
  </g>
</svg>
