<svg xmlns="http://www.w3.org/2000/svg" xmlns:xlink="http://www.w3.org/1999/xlink" width="18" height="18" viewBox="0 0 34 42">
  <defs>
    <path id="storybook-a" d="M1.31364919,38.7015933 L0.00153755829,4.03395175 C-0.0419777057,2.88883106 0.843364959,1.91840098 1.99671907,1.84715254 L31.7373393,0.00419301408 C32.91132,-0.0686387199 33.9224177,0.816029354 33.9958747,1.98001768 C33.9985362,2.02382228 34,2.06775881 34,2.11169535 L34,39.8884075 C34,41.0546388 33.0465233,42 31.8702805,42 C31.8383427,42 31.8064049,41.9993403 31.7747332,41.9978889 L3.34649069,40.7319098 C2.23931334,40.6826956 1.35530141,39.7997428 1.31364919,38.7015933 Z"/>
  </defs>
  <g fill="none" fill-rule="evenodd">
    <path fill="#FF4785" fill-rule="nonzero" d="M1.31364919,38.7015933 L0.00153755829,4.03395175 C-0.0419777057,2.88883106 0.843364959,1.91840098 1.99671907,1.84715254 L31.7373393,0.00419301408 C32.91132,-0.0686387199 33.9224177,0.816029354 33.9958747,1.98001768 C33.9985362,2.02382228 34,2.06775881 34,2.11169535 L34,39.8884075 C34,41.0546388 33.0465233,42 31.8702805,42 C31.8383427,42 31.8064049,41.9993403 31.7747332,41.9978889 L3.34649069,40.7319098 C2.23931334,40.6826956 1.35530141,39.7997428 1.31364919,38.7015933 Z"/>
    <mask id="storybook-b" fill="#fff">
      <use xlink:href="#storybook-a"/>
    </mask>
    <path fill="#FFF" fill-rule="nonzero" d="M25.1063849,5.1624478 L25.3095893,0.318081955 L29.3939027,-2.91154284e-05 L29.5698267,4.99567368 C29.5742898,5.118329 29.5064797,5.23238212 29.3960816,5.28790456 C29.2856834,5.34342699 29.1528097,5.33030351 29.055628,5.25427912 L27.4806949,4.02392419 L25.6159261,5.42646284 C25.5179211,5.50029473 25.3857182,5.51134425 25.2766304,5.45482118 C25.1675425,5.3982981 25.1012082,5.28437794 25.1063849,5.1624478 L25.1063849,5.1624478 Z M19.8830895,15.8303177 C19.8830895,16.6519177 25.4644876,16.2582041 26.2136954,15.6810918 C26.2136954,10.0865063 23.1859911,7.14658479 17.6417207,7.14658479 C12.0975833,7.14658479 8.99123219,10.1321581 8.99123219,14.6105181 C8.99123219,22.4105066 19.607892,22.5598644 19.607892,26.8143196 C19.607892,28.0086545 19.0179741,28.7177083 17.7203675,28.7177083 C16.0296598,28.7177083 15.361095,27.8614077 15.4397419,24.9505133 C15.4397419,24.319041 8.99123219,24.1221842 8.79454852,24.9505133 C8.29392337,32.0049 12.726625,34.0395706 17.7990144,34.0395706 C22.71411,34.0395706 26.5675397,31.4420374 26.5675397,26.7397726 C26.5675397,18.3799562 15.7937192,18.603861 15.7937192,14.4612922 C15.7937192,12.7819402 17.0519358,12.5580354 17.7991475,12.5580354 C18.5854829,12.5580354 20.0009932,12.6955185 19.8830895,15.8303177 Z" mask="url(#storybook-b)"/>
  </g>
</svg>
